<?xml version="1.0" standalone="no"?>
<!DOCTYPE svg PUBLIC "-//W3C//DTD SVG 20010904//EN"
 "http://www.w3.org/TR/2001/REC-SVG-20010904/DTD/svg10.dtd">
<svg version="1.0" xmlns="http://www.w3.org/2000/svg"
 width="923.000000pt" height="923.000000pt" viewBox="0 0 923.000000 923.000000"
 preserveAspectRatio="xMidYMid meet">
<metadata>
Created by potrace 1.14, written by Peter Selinger 2001-2017
</metadata>
<g transform="translate(0.000000,923.000000) scale(0.100000,-0.100000)"
fill="#000000" stroke="none">
<path d="M5105 9203 c12 -10 40 -33 64 -52 35 -27 123 -115 221 -220 41 -44
92 -112 88 -117 -3 -2 -41 3 -84 12 -126 26 -380 23 -510 -6 -24 -6 -61 -13
-82 -16 -20 -3 -41 -9 -47 -12 -5 -3 -21 -7 -36 -9 -48 -5 -246 -80 -356 -135
-105 -53 -203 -107 -213 -118 -3 -3 -34 -25 -70 -49 -36 -25 -92 -68 -126 -98
-34 -29 -64 -53 -68 -53 -4 0 -39 -16 -77 -35 -38 -19 -69 -32 -69 -29 0 2
-10 -2 -23 -10 -37 -25 -230 -84 -293 -91 -32 -3 -71 -8 -85 -11 -19 -4 -28 0
-33 12 -4 9 -9 14 -13 11 -6 -7 45 -87 56 -87 3 0 19 -11 35 -25 45 -38 133
-78 177 -79 21 -1 39 -4 39 -8 0 -24 -218 -241 -286 -284 -16 -10 -35 -24 -42
-31 -14 -13 -132 -87 -141 -89 -13 -2 -61 -24 -61 -28 0 -4 27 1 75 15 28 8
55 14 117 25 15 3 67 18 114 34 48 16 90 27 94 25 5 -3 -2 -32 -15 -65 -13
-33 -24 -62 -24 -63 0 -3 -8 -26 -52 -142 -22 -60 -56 -153 -74 -205 -69 -202
-135 -336 -201 -410 -19 -20 -30 -40 -26 -44 4 -4 3 -6 -3 -4 -5 1 -21 -5 -35
-15 -17 -11 -19 -17 -9 -17 9 0 19 3 23 7 3 4 22 8 42 10 19 1 73 22 120 46
46 24 85 42 88 40 2 -2 1 -43 -2 -91 -14 -222 -4 -654 16 -687 3 -5 8 -28 9
-50 6 -65 18 -59 18 8 -1 34 2 80 6 102 4 22 10 58 13 80 3 22 8 51 11 65 3
14 9 48 14 77 16 84 42 166 51 156 4 -4 10 -42 14 -83 6 -71 20 -176 31 -230
3 -14 9 -50 15 -80 5 -30 15 -71 21 -90 5 -19 12 -42 14 -50 10 -43 72 -200
78 -200 1 0 1 39 1 88 -1 48 3 116 8 152 12 92 17 124 17 133 3 33 52 -80 66
-153 2 -12 87 -267 94 -285 5 -11 14 -35 21 -52 7 -18 17 -33 22 -33 5 0 6 -6
2 -12 -5 -9 -3 -9 9 1 18 14 32 59 41 131 8 64 17 128 21 148 2 9 4 19 4 21 1
3 30 -24 65 -58 53 -54 65 -72 75 -116 11 -50 69 -159 83 -158 3 1 24 -16 47
-37 36 -35 144 -96 154 -88 3 1 15 -6 27 -17 12 -11 25 -19 29 -17 18 9 9 -34
-17 -81 -16 -28 -39 -78 -52 -109 -16 -42 -28 -58 -41 -58 -11 0 -19 -5 -19
-12 0 -6 -3 -8 -7 -5 -14 14 -81 -79 -152 -212 -4 -8 -27 -22 -52 -30 -70 -25
-82 -36 -113 -98 -15 -32 -32 -66 -37 -75 -5 -10 -9 -25 -9 -33 0 -22 -18 -18
-25 5 -3 11 -17 28 -29 38 -13 10 -27 29 -31 42 -27 95 -57 114 -173 115 l-83
0 -28 65 c-37 90 -72 160 -94 193 -10 15 -15 27 -12 27 4 0 -3 15 -14 34 -25
40 -161 312 -161 321 0 4 -9 19 -19 33 -10 15 -19 30 -20 35 0 4 -27 58 -58
120 -32 61 -60 117 -62 122 -5 13 -187 387 -307 630 -52 105 -102 202 -112
216 -51 77 -68 97 -106 125 -97 73 -185 102 -291 98 -74 -3 -85 -5 -125 -21
-58 -24 -150 -159 -150 -219 0 -11 -3 -24 -7 -28 -30 -29 -17 -187 17 -217 14
-12 18 -26 14 -58 -3 -22 -1 -41 3 -41 5 0 9 -10 10 -22 2 -22 66 -177 88
-213 40 -65 100 -190 122 -255 14 -41 34 -95 46 -120 24 -52 117 -213 127
-220 6 -4 91 -177 124 -250 35 -79 220 -338 302 -425 22 -23 29 -41 30 -73 2
-45 11 -61 35 -66 30 -6 69 -26 69 -35 0 -17 52 -60 80 -66 14 -3 42 -23 63
-44 34 -35 38 -44 41 -99 4 -75 22 -104 80 -128 l46 -19 -3 -66 c-1 -41 3 -72
10 -81 18 -21 89 -55 158 -74 33 -9 83 -29 110 -45 53 -29 253 -109 320 -128
53 -15 110 -14 127 2 7 6 19 13 26 15 6 1 18 3 25 5 7 1 11 -7 10 -23 -14
-149 -6 -194 53 -312 31 -62 33 -70 24 -118 -5 -28 -9 -54 -9 -58 3 -20 -4
-34 -41 -78 -21 -26 -37 -51 -34 -56 3 -4 1 -8 -5 -8 -12 0 -19 -22 -26 -80
-3 -25 -8 -58 -11 -75 -2 -16 -6 -62 -8 -102 -4 -61 -2 -74 15 -89 10 -9 19
-15 19 -12 0 3 21 0 48 -6 l47 -12 5 -50 c3 -27 2 -62 -3 -79 -4 -16 -7 -86
-7 -155 0 -201 -7 -416 -14 -429 -4 -6 -14 -11 -22 -11 -13 0 -19 -12 -15 -33
2 -12 -28 -53 -36 -49 -4 2 -9 -1 -11 -6 -1 -5 17 -9 40 -10 53 -2 70 -19 73
-74 1 -23 5 -61 9 -83 17 -108 21 -196 9 -204 -5 -3 -17 -19 -27 -34 -14 -23
-16 -40 -11 -85 4 -31 8 -59 11 -63 2 -4 6 -20 9 -36 2 -15 6 -41 9 -58 3 -16
7 -51 10 -77 4 -42 2 -48 -25 -69 -40 -30 -38 -51 15 -132 l18 -27 -36 -15
c-20 -8 -37 -19 -37 -23 -1 -4 -2 -38 -3 -77 -1 -67 -2 -69 -26 -69 -39 0 -56
-36 -39 -86 8 -22 6 -34 -9 -59 -10 -17 -22 -28 -25 -24 -4 3 -7 1 -7 -5 0 -7
-7 -12 -15 -12 -8 0 -15 -4 -15 -10 0 -5 -4 -10 -9 -10 -17 0 -80 -63 -74 -73
3 -6 1 -7 -5 -3 -7 4 -12 3 -12 -3 0 -5 -8 -12 -17 -15 -10 -3 -29 -16 -43
-29 -14 -12 -41 -29 -60 -36 -19 -8 -39 -18 -45 -23 -5 -4 -16 -8 -25 -8 -9 0
-17 -6 -18 -12 -8 -68 -11 -90 -17 -107 -4 -13 -2 -21 5 -21 6 0 9 -4 6 -8 -7
-12 33 -54 45 -47 5 4 9 1 9 -5 0 -6 4 -8 10 -5 5 3 10 2 10 -3 0 -8 22 -16
75 -28 6 -1 12 -3 15 -4 5 -2 21 -5 92 -18 48 -9 93 -9 143 2 17 3 45 8 63 11
18 3 101 30 185 61 83 31 157 57 162 58 38 8 179 61 219 84 55 30 62 48 46
115 -6 23 -13 53 -16 67 -3 14 -9 40 -14 59 -10 36 -5 55 11 46 5 -4 9 -1 9 5
0 6 -6 13 -14 16 -20 8 -10 32 28 72 30 32 30 34 15 60 -9 15 -22 25 -30 24
-8 -2 -11 -1 -7 3 4 4 -2 16 -12 27 -27 29 -30 55 -10 80 10 13 23 50 31 83 7
33 13 62 14 65 9 39 16 98 30 270 2 25 10 58 18 74 9 16 14 36 12 45 -16 91
-16 119 4 156 13 24 17 44 12 54 -11 22 -7 50 24 161 14 52 28 104 30 115 2
11 14 56 26 100 12 44 22 87 23 95 1 9 5 20 9 26 3 6 9 26 12 44 3 18 8 36 10
39 3 6 12 58 21 116 1 11 3 35 3 53 1 23 6 32 18 32 9 0 14 -3 11 -6 -4 -3 -1
-20 7 -37 7 -18 10 -37 8 -44 -2 -6 1 -14 6 -18 6 -3 11 -15 11 -26 0 -10 5
-28 10 -39 6 -11 14 -29 20 -40 6 -11 10 -27 10 -35 0 -8 5 -15 10 -15 6 0 9
-3 8 -7 -3 -16 15 -63 24 -63 5 0 7 -4 3 -9 -3 -5 1 -25 9 -43 22 -49 29 -72
27 -81 0 -4 6 -10 14 -13 8 -3 13 -10 10 -15 -3 -4 -1 -16 4 -26 31 -59 60
-156 66 -218 1 -11 2 -29 3 -41 1 -12 20 -42 42 -67 22 -24 42 -55 44 -68 3
-13 5 -24 6 -24 4 0 35 -139 44 -190 2 -16 5 -32 6 -35 1 -3 3 -9 4 -15 5 -33
34 -98 67 -149 22 -33 39 -65 39 -70 1 -6 9 -29 19 -51 18 -38 18 -41 1 -85
-19 -50 -17 -66 12 -94 12 -11 18 -26 15 -38 -4 -14 5 -30 29 -52 l35 -32 4
-111 c2 -61 6 -129 9 -150 3 -21 8 -78 11 -128 4 -49 14 -106 23 -126 16 -38
74 -85 91 -74 6 3 11 2 11 -4 0 -15 101 -41 159 -41 130 0 270 94 256 173 -3
14 -7 45 -9 69 -2 24 -11 68 -19 98 -8 30 -18 71 -21 90 -4 19 -13 64 -22 100
-9 36 -15 87 -15 114 1 37 -4 55 -20 72 l-21 22 31 59 c29 55 33 93 10 93 -22
0 -28 39 -13 84 16 46 16 47 -12 84 l-29 37 -4 187 c-2 104 -7 188 -12 188 -5
0 -9 7 -9 15 0 8 -4 15 -9 15 -13 0 -61 100 -62 130 0 14 2 36 6 50 20 79 9
141 -30 158 -14 7 -26 15 -26 19 -5 32 -9 146 -14 383 -9 370 -9 366 -2 384 9
22 83 22 91 0 3 -8 10 -12 16 -9 5 3 7 0 4 -9 -3 -8 3 -23 14 -34 11 -11 18
-23 15 -26 -4 -3 -2 -6 3 -7 5 0 17 -2 27 -4 9 -2 23 2 30 8 7 8 48 12 110 11
78 -1 101 2 117 16 11 9 17 20 13 24 -3 3 -1 6 6 6 7 0 10 4 6 9 -3 5 -1 12 5
16 10 6 3 52 -11 70 -4 6 -10 23 -13 39 -4 24 -1 30 24 39 16 6 33 18 36 27 4
8 8 64 10 124 l2 108 60 92 c32 50 62 101 66 113 8 25 -8 60 -38 85 -37 31
-40 33 -81 57 -75 45 -77 48 -56 90 27 52 52 131 56 171 3 36 -21 109 -39 122
-6 4 -8 8 -4 8 4 0 -5 27 -18 61 -20 48 -26 84 -29 172 -3 62 -8 137 -11 167
-4 30 -8 66 -9 80 -14 130 -56 321 -77 348 -6 6 -8 12 -5 12 3 0 -3 17 -13 38
-18 36 -18 37 1 55 24 22 99 133 99 146 0 5 3 11 8 13 11 5 63 88 55 88 -5 0
-3 4 3 8 6 4 33 50 59 102 56 111 64 165 33 221 -21 38 -81 79 -116 79 -61 0
-67 33 -21 112 50 85 49 84 75 28 34 -74 77 -109 79 -65 3 61 55 191 93 236
52 61 90 114 86 120 -2 4 2 9 10 12 7 3 21 38 30 79 43 183 73 267 77 213 6
-63 64 -183 102 -210 30 -21 40 -19 27 5 -15 28 -19 142 -9 219 14 96 22 138
40 201 7 25 13 47 14 50 0 3 8 30 17 60 16 52 35 150 42 215 2 17 4 31 5 33 0
2 16 -5 34 -16 35 -22 66 -30 140 -37 31 -4 46 -2 42 5 -3 5 -12 10 -18 10 -7
0 -23 11 -37 24 -56 53 -69 75 -74 129 -3 30 -13 85 -22 123 -9 38 -18 80 -20
94 -3 14 -10 43 -16 65 -5 22 -11 47 -13 56 -4 19 -37 124 -60 189 -49 139
-244 493 -299 543 -10 9 -16 17 -13 17 4 0 -2 10 -12 23 -35 40 -55 64 -91
108 -19 23 -43 49 -54 58 -10 9 -37 35 -59 59 -22 23 -66 61 -96 85 -31 23
-58 45 -61 48 -30 36 -265 163 -320 174 -79 15 -76 13 -89 70 -13 59 -58 155
-72 155 -5 0 -9 5 -9 12 0 10 -48 60 -96 98 -48 39 -277 160 -303 160 -4 0
-22 7 -40 16 -17 9 -37 17 -44 18 -12 3 -22 7 -99 39 -20 8 -39 13 -42 9 -3
-3 -6 -1 -6 5 0 5 -12 15 -27 22 -28 12 -28 12 -8 -6z"/>
<path d="M6337 558 c-7 -4 -3 -7 8 -6 32 1 167 -13 255 -27 25 -4 52 -7 60 -7
8 0 31 -4 50 -8 19 -5 51 -11 70 -14 52 -8 72 -13 101 -24 15 -6 29 -8 32 -6
3 3 19 -2 36 -11 17 -8 31 -12 31 -8 0 4 5 2 11 -4 6 -6 18 -9 25 -6 8 3 14
-1 14 -8 0 -7 3 -10 6 -7 3 4 20 0 39 -7 18 -8 35 -11 39 -8 3 4 6 1 6 -6 0
-7 5 -9 10 -6 6 3 10 0 10 -8 0 -11 -45 -41 -57 -38 -2 0 -27 -11 -57 -24 -30
-13 -57 -21 -60 -18 -3 4 -6 1 -6 -6 0 -7 -4 -10 -9 -7 -5 3 -14 -1 -21 -9 -7
-8 -16 -13 -20 -10 -5 3 -11 1 -15 -5 -4 -6 -11 -8 -16 -5 -5 4 -9 2 -9 -4 0
-5 -13 -12 -30 -16 -16 -4 -30 -11 -30 -16 0 -6 -4 -7 -10 -4 -5 3 -10 1 -10
-5 0 -6 -4 -9 -9 -6 -5 3 -12 -1 -15 -10 -5 -12 -2 -15 11 -9 10 4 27 8 38 10
11 1 20 3 20 4 0 2 7 4 15 6 8 2 26 7 40 10 14 4 36 8 50 10 14 2 25 4 25 5 0
1 7 3 15 5 8 2 50 14 92 28 42 13 80 22 83 19 3 -3 5 0 5 7 0 7 5 9 10 6 6 -3
10 -2 10 4 0 6 7 8 15 5 8 -4 15 -2 15 4 0 5 9 12 20 15 14 4 20 14 20 35 0
17 -5 34 -12 38 -7 5 -9 2 -4 -7 4 -8 0 -5 -8 5 -9 11 -16 16 -16 12 0 -5 -6
-3 -13 3 -8 6 -17 8 -20 4 -4 -3 -7 -2 -7 3 0 5 -12 11 -27 12 -15 1 -29 6
-32 11 -3 4 -13 8 -21 8 -8 1 -42 8 -75 18 -33 9 -71 18 -85 21 -14 2 -36 6
-50 8 -69 12 -143 23 -210 31 -19 2 -53 6 -75 10 -119 17 -242 23 -258 13z"/>
<path d="M3658 173 c7 -3 16 -2 19 1 4 3 -2 6 -13 5 -11 0 -14 -3 -6 -6z"/>
<path d="M3690 164 c0 -8 5 -12 10 -9 6 3 10 2 10 -2 0 -5 8 -9 18 -10 17 -1
168 -48 319 -100 119 -40 151 -43 273 -28 36 4 85 9 110 11 25 2 74 5 110 8
36 3 108 7 160 11 52 3 129 8 170 11 41 3 109 7 150 10 41 2 107 6 145 9 39 3
106 7 150 10 44 2 112 7 150 10 63 5 177 12 229 14 11 1 17 4 13 7 -8 8 -235
13 -877 18 -289 3 -590 8 -670 11 -80 4 -181 8 -225 10 -87 3 -187 12 -222 19
-16 3 -23 0 -23 -10z"/>
</g>
</svg>
