<?xml version="1.0" standalone="no"?>
<!DOCTYPE svg PUBLIC "-//W3C//DTD SVG 20010904//EN"
 "http://www.w3.org/TR/2001/REC-SVG-20010904/DTD/svg10.dtd">
<svg version="1.0" xmlns="http://www.w3.org/2000/svg"
 width="512.000000pt" height="512.000000pt" viewBox="0 0 512.000000 512.000000"
 preserveAspectRatio="xMidYMid meet">
<metadata>
Created by potrace 1.14, written by Peter Selinger 2001-2017
</metadata>
<g transform="translate(0.000000,512.000000) scale(0.100000,-0.100000)"
fill="#000000" stroke="none">
<path d="M0 4031 c0 -651 4 -1092 9 -1095 14 -9 80 37 81 55 0 14 30 37 30 24
0 -13 -46 -75 -55 -75 -11 0 -39 -39 -33 -46 6 -5 77 32 98 51 10 9 34 18 54
22 19 3 41 12 47 19 6 8 16 14 22 14 5 0 46 24 91 54 45 30 96 56 114 59 18 3
40 14 50 25 18 20 79 48 87 40 3 -3 0 -18 -5 -34 -9 -27 -14 -29 -45 -26 -29
4 -34 1 -29 -12 3 -9 11 -16 18 -16 6 0 25 -14 43 -30 18 -17 38 -30 45 -30 7
0 19 -9 26 -20 16 -26 34 -16 26 14 -4 18 -1 25 16 29 21 5 60 -10 60 -24 0
-11 38 2 51 17 6 8 19 14 28 14 17 0 46 13 214 96 98 49 123 53 132 25 7 -22
32 -35 40 -20 8 12 -4 49 -16 49 -23 0 -6 18 24 25 93 21 112 22 135 12 17 -8
29 -8 44 2 17 11 19 10 16 -6 -2 -10 -21 -26 -42 -36 -31 -15 -37 -22 -32 -40
3 -12 6 -26 6 -30 0 -5 14 -6 30 -2 33 7 41 -8 13 -24 -16 -9 -16 -12 -3 -20
12 -8 12 -13 2 -23 -28 -28 -1 -40 29 -12 10 9 15 22 12 30 -3 8 1 14 11 14
20 0 22 -43 1 -60 -21 -17 -87 -50 -102 -50 -17 0 -26 18 -16 33 4 6 6 20 5
30 -2 9 4 20 12 23 9 3 16 12 16 20 0 18 -8 18 -26 -1 -17 -17 -44 -20 -44 -5
0 17 -33 10 -95 -20 -33 -16 -68 -30 -77 -30 -11 0 -18 -8 -18 -20 0 -24 41
-28 60 -5 7 8 18 15 25 15 7 0 15 7 19 15 3 8 10 15 16 15 6 0 4 -11 -5 -24
-24 -36 2 -47 27 -13 20 28 48 36 48 15 -1 -7 -19 -33 -40 -58 -22 -25 -35
-47 -29 -49 13 -4 49 28 49 45 0 21 17 25 34 8 20 -20 21 -44 1 -44 -8 0 -15
-4 -15 -9 0 -5 -9 -13 -20 -16 -11 -3 -20 -11 -20 -16 0 -13 27 -11 50 3 15 9
24 9 43 -1 21 -11 30 -10 65 8 22 11 43 29 45 38 4 17 5 17 6 0 1 -16 3 -16
32 -2 49 26 46 10 -10 -44 -40 -39 -47 -50 -34 -55 9 -4 23 0 33 9 9 8 20 15
23 15 4 0 31 16 61 35 43 27 53 39 49 55 -3 11 -9 20 -14 20 -5 0 -9 9 -9 20
0 34 18 22 33 -22 9 -24 16 -35 16 -25 1 9 5 17 10 17 5 0 12 -8 14 -17 4 -14
5 -12 6 5 0 12 -3 22 -8 22 -6 0 -7 16 -4 35 4 24 2 35 -6 35 -7 0 -11 -8 -10
-17 1 -10 1 -25 0 -33 -1 -13 -2 -13 -11 0 -6 8 -7 28 -4 44 4 19 1 31 -7 37
-25 15 -31 10 -25 -23 5 -31 4 -30 -7 5 -12 36 -13 37 -35 21 -13 -9 -31 -13
-43 -9 -22 7 -18 17 9 21 9 2 18 7 20 13 2 5 10 7 19 4 13 -5 15 0 9 33 -10
51 -14 56 -37 49 -13 -4 -19 -2 -19 9 0 10 9 16 23 17 12 0 16 3 9 6 -9 4 -10
8 -2 18 9 11 15 40 22 122 1 6 7 9 15 6 17 -7 17 5 -2 23 -8 9 -15 29 -15 45
0 24 -8 33 -47 54 -93 49 -108 62 -132 104 -23 43 -23 43 -2 32 32 -18 51 5
42 50 -5 23 -9 30 -15 21 -4 -7 -5 -24 -2 -37 3 -13 2 -26 -3 -30 -12 -7 -19
4 -26 43 -4 23 -1 33 12 41 10 5 15 13 11 17 -10 9 -38 -15 -48 -41 -8 -18 -9
-17 -9 8 -1 16 3 26 9 22 6 -3 10 3 10 15 0 17 4 20 22 14 22 -6 22 -6 5 19
-15 23 -15 27 -1 41 21 22 27 20 18 -6 -6 -20 -5 -21 10 -9 12 10 14 17 5 27
-13 16 6 48 22 38 5 -3 9 -1 9 5 0 5 3 18 6 28 5 15 2 14 -14 -4 -11 -13 -25
-23 -31 -23 -6 0 -18 -11 -27 -25 -9 -14 -19 -24 -21 -21 -23 23 234 242 417
356 47 29 112 70 145 91 33 20 105 56 160 79 55 22 143 61 195 85 52 25 127
56 165 71 39 14 90 34 115 44 40 16 159 54 435 137 44 13 109 25 145 27 36 2
97 6 135 10 l70 6 -44 -15 c-57 -19 -75 -35 -39 -35 15 0 33 -7 42 -15 16 -16
30 -5 31 25 0 9 10 15 25 16 14 1 34 2 45 3 l20 2 -20 8 -20 8 20 6 c43 13
141 27 179 26 l41 -1 -37 -15 c-21 -9 -38 -20 -38 -24 0 -12 37 -11 45 1 3 5
23 9 43 8 20 -1 80 10 132 24 66 19 110 25 145 22 75 -8 97 -13 90 -25 -5 -7
-11 -6 -20 1 -11 9 -25 6 -60 -11 -45 -23 -58 -39 -30 -39 19 0 19 -14 1 -29
-15 -13 -67 -5 -108 15 -32 16 -84 18 -93 4 -4 -6 -19 -9 -35 -8 -16 1 -39 -3
-52 -9 -50 -23 -120 -34 -135 -22 -14 12 -99 16 -109 6 -10 -10 54 -37 73 -31
10 4 1 -8 -19 -25 -21 -18 -38 -39 -38 -48 0 -21 -42 -53 -62 -47 -12 4 -18 0
-18 -11 0 -8 -7 -18 -15 -22 -9 -3 -15 -15 -13 -27 3 -18 -1 -20 -25 -18 -21
3 -29 -2 -36 -20 -4 -13 -7 -28 -4 -34 2 -6 -15 -23 -37 -39 -27 -19 -39 -33
-35 -43 7 -19 -11 -31 -36 -25 -25 7 -24 20 1 33 11 6 20 19 20 30 0 11 9 24
19 30 27 14 34 41 18 77 -12 31 -13 31 -50 18 -57 -20 -102 -59 -127 -112 -12
-26 -40 -67 -61 -92 -21 -24 -39 -50 -39 -58 0 -10 -7 -13 -22 -9 -13 3 -17 3
-10 0 14 -6 7 -24 -10 -24 -6 0 -8 12 -4 31 3 17 1 39 -4 50 -13 23 -53 25
-70 4 -7 -8 -23 -15 -35 -15 -24 0 -104 -74 -133 -123 -9 -15 -26 -30 -38 -33
-12 -3 -27 -16 -34 -30 -8 -13 -17 -24 -22 -24 -5 0 -13 -11 -18 -25 -5 -14
-14 -25 -19 -25 -5 0 -11 -9 -14 -20 -6 -22 -29 -28 -26 -7 3 24 -1 52 -10 66
-30 48 -102 -127 -81 -198 4 -15 5 -50 2 -79 -2 -29 -1 -52 4 -52 5 0 21 13
36 28 15 15 63 49 107 75 44 27 104 70 133 96 29 27 63 51 75 55 15 5 20 14
18 31 -1 18 3 25 15 25 10 0 23 7 30 15 7 8 18 15 25 15 7 0 26 7 41 15 16 8
41 15 57 15 15 0 27 5 27 11 0 18 62 74 103 93 21 9 36 23 35 29 -2 7 8 27 21
45 18 26 26 30 37 22 7 -7 17 -9 22 -6 6 3 15 -1 22 -9 10 -12 10 -15 -1 -15
-10 0 -10 -3 -2 -11 9 -9 43 17 135 102 68 63 137 121 154 129 16 8 31 18 34
21 3 3 17 12 31 20 15 8 45 24 68 37 22 12 41 20 41 16 0 -4 7 -1 15 6 9 7 18
10 22 6 3 -3 1 -6 -5 -6 -7 0 -12 -4 -12 -8 0 -11 32 -12 46 0 8 5 14 3 18 -7
3 -8 12 -15 21 -15 8 0 15 -8 15 -19 0 -20 23 -30 53 -23 21 4 23 22 2 22 -8
0 -15 7 -15 15 0 12 4 13 19 5 33 -17 44 -12 37 15 -4 14 -2 25 4 25 5 0 10
-4 10 -10 0 -5 9 -10 19 -10 10 0 21 -6 24 -14 8 -19 -36 -58 -56 -50 -10 3
-17 1 -17 -5 0 -6 6 -11 13 -11 8 0 22 -9 32 -20 18 -20 17 -20 -8 -20 -14 0
-29 -5 -33 -12 -5 -7 -2 -9 9 -5 9 3 18 0 21 -9 3 -8 12 -14 20 -14 7 0 16 -7
20 -15 3 -8 13 -15 22 -15 11 0 14 -5 10 -16 -5 -13 -2 -15 15 -11 12 3 31 2
41 -4 12 -7 24 -6 36 0 16 10 16 10 0 11 -13 0 -18 8 -18 26 0 14 4 23 9 20 5
-4 19 -3 30 2 21 8 21 8 -4 42 -14 19 -25 38 -25 42 0 17 28 6 55 -22 15 -16
32 -27 37 -24 27 17 70 -32 80 -91 3 -15 10 -19 31 -17 18 2 29 -2 33 -12 3
-9 12 -16 20 -16 8 0 14 -7 14 -17 0 -15 1 -15 18 0 21 19 19 69 -4 88 -24 19
-17 49 10 49 14 0 27 -4 31 -10 3 -5 12 -7 20 -4 15 6 65 -23 65 -38 0 -5 7
-16 15 -25 21 -20 15 -47 -10 -51 -29 -6 -40 -19 -27 -34 13 -17 5 -30 -27
-44 l-25 -10 22 -20 c54 -47 72 -69 68 -81 -3 -8 2 -13 13 -13 11 0 22 6 24
13 3 6 10 -3 17 -20 9 -24 18 -33 35 -33 13 0 26 -7 29 -16 9 -22 8 -24 -9
-24 -8 0 -15 -4 -15 -9 0 -5 -3 -16 -6 -25 -11 -28 11 -17 60 30 l49 46 -14
42 c-15 46 -18 106 -6 106 4 0 11 -8 14 -17 4 -10 15 -29 25 -43 12 -15 17
-33 14 -46 -5 -18 0 -24 22 -32 l27 -9 -52 -26 c-34 -17 -56 -37 -64 -57 -8
-16 -18 -29 -24 -28 -18 4 -139 -60 -174 -91 -18 -17 -37 -29 -41 -26 -13 8
-81 -25 -75 -35 4 -6 -1 -13 -9 -16 -36 -14 -4 -54 43 -54 12 0 21 -6 21 -14
0 -9 -8 -12 -24 -9 -17 4 -28 -1 -38 -16 -7 -12 -18 -21 -25 -21 -25 0 -64
-24 -59 -37 3 -7 1 -13 -4 -13 -15 0 -12 -30 3 -30 22 -1 -56 -60 -80 -60 -12
0 -25 -4 -28 -10 -3 -5 -1 -10 4 -10 14 0 14 -27 1 -35 -5 -3 -7 0 -5 7 3 8
-6 18 -24 25 -28 10 -29 10 -26 -18 4 -28 -8 -39 -20 -19 -3 6 -11 10 -17 10
-7 0 -6 -5 2 -15 10 -12 7 -15 -14 -21 -15 -3 -35 -17 -45 -30 -10 -13 -22
-20 -26 -16 -8 7 -5 -3 12 -45 5 -12 2 -15 -10 -10 -12 4 -17 1 -17 -10 0 -11
-3 -13 -12 -5 -10 8 -13 4 -13 -14 0 -13 6 -24 13 -24 6 0 12 -9 12 -19 0 -25
18 -37 33 -22 9 9 8 11 -5 6 -11 -4 -18 -2 -18 4 0 6 5 11 10 11 6 0 10 5 10
10 0 6 -7 10 -15 10 -17 0 -20 16 -5 25 6 3 10 1 10 -6 0 -6 8 -3 18 8 9 10
16 17 15 15 -1 -3 2 -13 8 -23 8 -15 6 -19 -6 -19 -14 0 -14 -3 2 -25 12 -16
24 -22 37 -19 16 5 17 2 11 -24 -4 -19 -2 -33 6 -38 9 -5 10 -2 6 9 -3 9 -3
27 2 39 7 20 8 19 14 -10 4 -21 11 -30 20 -26 10 4 13 -3 9 -24 -5 -37 14 -74
36 -70 29 4 62 -21 62 -47 0 -28 -3 -29 -31 -14 -19 10 -20 8 -15 -18 3 -15
12 -64 20 -108 8 -44 16 -84 18 -90 1 -5 0 -11 -5 -12 -20 -7 -25 0 -20 30 3
21 -1 46 -11 65 -9 17 -13 38 -10 46 3 9 2 16 -4 16 -6 0 -8 -31 -6 -83 4 -67
2 -86 -11 -97 -13 -11 -15 -8 -15 18 0 53 -21 136 -40 157 -10 11 -31 44 -46
74 -16 29 -46 68 -66 87 -42 37 -49 50 -19 34 25 -13 42 -13 19 1 -10 5 -18
19 -18 31 0 14 -5 18 -16 14 -9 -3 -20 -6 -26 -6 -6 0 -5 -7 3 -16 12 -15 10
-16 -17 -10 -43 10 -71 -16 -51 -47 7 -11 28 -28 47 -38 18 -10 36 -22 39 -27
3 -5 16 -14 29 -21 12 -6 22 -18 22 -26 0 -7 8 -16 18 -20 19 -5 40 -55 47
-110 2 -16 4 -32 5 -35 2 -3 2 -8 1 -12 0 -5 3 -8 7 -8 4 0 8 -32 9 -70 1 -51
-2 -68 -10 -63 -13 7 12 -27 28 -40 6 -4 -3 -5 -20 -1 -37 8 -54 22 -38 32 20
13 -3 166 -35 229 -18 34 -102 123 -117 123 -3 0 -5 -7 -5 -15 0 -8 6 -15 14
-15 9 0 12 -9 10 -27 -1 -15 7 -46 18 -68 11 -22 24 -48 29 -57 5 -10 9 -31 9
-47 0 -17 6 -31 16 -35 8 -3 12 -10 9 -16 -3 -5 -1 -10 4 -10 6 0 11 -9 11
-19 0 -11 8 -21 18 -24 13 -3 11 -6 -12 -16 -22 -9 -27 -16 -23 -34 3 -12 1
-31 -3 -42 -8 -19 -9 -19 -9 -1 -1 14 -4 16 -14 7 -8 -6 -13 -27 -11 -53 1
-29 -3 -48 -14 -58 -14 -13 -15 -12 -9 4 18 46 20 69 6 64 -8 -3 -13 -15 -11
-26 2 -17 -2 -22 -17 -22 -12 0 -21 5 -21 10 0 6 5 10 10 10 6 0 10 8 10 17 0
16 -1 16 -17 0 -15 -14 -15 -21 -5 -37 15 -25 15 -31 0 -27 -9 1 -12 -8 -10
-25 1 -16 -1 -28 -7 -28 -5 0 -11 -16 -13 -35 -4 -39 7 -47 17 -14 6 17 9 19
16 8 5 -8 9 -26 9 -41 0 -15 5 -30 10 -33 5 -3 10 3 10 15 0 23 27 70 41 70 5
0 9 -12 8 -27 0 -16 -3 -22 -6 -15 -2 6 -8 12 -13 12 -11 0 -11 -108 1 -115
13 -8 -8 -35 -27 -35 -10 0 -11 6 -4 25 5 14 5 27 0 30 -4 3 -10 -3 -13 -12
-3 -13 -6 -11 -12 10 -6 22 -12 27 -27 24 -12 -4 -18 -1 -15 6 2 7 11 11 18
10 9 -2 15 5 15 17 0 28 -8 25 -35 -10 -12 -17 -26 -28 -32 -25 -5 4 -12 -1
-15 -10 -5 -12 -9 -13 -20 -4 -8 6 -14 17 -14 23 0 7 3 7 8 -2 14 -21 53 31
59 80 3 23 10 51 14 60 8 15 4 17 -36 15 -25 -1 -45 -6 -46 -12 0 -5 -3 -19
-5 -30 -3 -11 -6 -50 -7 -87 -1 -40 -7 -72 -15 -80 -12 -11 -13 1 -7 71 4 46
13 101 21 123 18 51 18 51 -5 39 -10 -6 -22 -7 -26 -3 -4 4 -4 -3 -1 -15 4
-12 2 -24 -4 -28 -8 -5 -8 -11 1 -21 6 -8 7 -14 3 -14 -5 0 -15 9 -22 20 -7
11 -17 20 -22 20 -16 0 -12 -46 5 -60 13 -11 15 -10 10 6 -4 12 0 9 9 -6 19
-32 20 -44 2 -37 -8 3 -20 -1 -26 -9 -10 -12 -8 -14 14 -14 14 0 26 -5 26 -11
0 -6 -7 -9 -15 -5 -9 3 -20 -3 -27 -14 -30 -48 -47 -4 -19 49 11 20 10 26 -4
40 -14 13 -16 14 -15 1 5 -38 -1 -58 -20 -63 -11 -3 -20 -1 -20 4 0 4 -8 5
-17 2 -16 -6 -16 -5 -4 10 7 9 11 26 8 37 -3 13 0 20 9 20 8 0 14 5 14 10 0 6
-5 10 -11 10 -6 0 -9 7 -5 15 4 13 2 13 -14 5 -28 -15 -35 -12 -18 8 8 9 20
30 27 46 11 27 10 31 -15 51 -17 13 -24 26 -20 34 6 9 -1 12 -25 9 -30 -3 -34
-7 -37 -33 l-2 -30 16 23 c9 12 20 22 24 22 8 0 4 -56 -5 -71 -4 -5 -2 -9 3
-9 11 0 2 -47 -15 -75 -15 -26 -26 -14 -27 30 -1 19 -4 35 -8 35 -5 0 -8 -5
-8 -12 0 -6 -3 -8 -7 -5 -3 4 -13 -2 -21 -14 -8 -11 -32 -33 -53 -49 -30 -21
-35 -29 -23 -34 10 -4 13 -13 9 -26 -4 -11 -2 -20 4 -20 7 0 7 -8 -1 -25 -12
-26 -34 -36 -24 -10 3 8 2 15 -3 15 -5 0 -11 9 -14 21 -3 12 -10 18 -16 14 -7
-4 -6 -14 5 -29 13 -21 13 -25 -1 -40 -20 -20 -34 -20 -41 -1 -8 21 -19 19
-31 -7 -5 -12 -12 -17 -16 -12 -3 6 10 27 29 48 34 38 42 63 10 30 -20 -19
-29 -14 -20 10 3 9 13 16 21 16 9 0 13 6 9 15 -3 8 6 26 19 41 18 19 23 33 19
54 -4 15 -1 31 5 34 6 4 9 11 6 16 -8 12 -35 1 -35 -14 0 -23 -22 -36 -42 -25
-24 13 -25 -6 0 -20 15 -10 15 -12 2 -23 -8 -7 -20 -26 -25 -43 -6 -17 -19
-31 -30 -33 -11 -3 -28 -13 -38 -23 -10 -11 -22 -17 -27 -14 -5 3 -11 1 -15
-5 -8 -13 -45 -13 -45 0 0 6 5 10 11 10 14 0 48 41 49 58 0 20 -20 13 -30 -10
-8 -22 -9 -22 -9 5 -1 22 3 27 24 27 16 0 25 -6 25 -15 0 -8 5 -15 10 -15 6 0
10 5 10 10 0 6 16 20 35 31 19 12 32 25 29 31 -4 6 -10 6 -17 -1 -14 -14 -30
-14 -21 0 3 6 0 15 -7 20 -23 14 -30 10 -20 -10 9 -16 6 -19 -21 -25 -45 -9
-52 -8 -39 8 6 7 9 21 5 29 -8 22 -41 2 -48 -29 -3 -12 -9 -30 -13 -40 -4 -12
-3 -15 5 -10 7 4 12 1 12 -7 0 -7 -12 -19 -27 -26 -23 -11 -29 -10 -39 3 -12
18 -34 22 -34 7 0 -6 5 -13 10 -16 6 -4 8 -11 4 -16 -4 -6 -13 -3 -24 8 -16
16 -16 20 -2 36 23 26 0 47 -26 24 -10 -9 -24 -17 -30 -17 -7 0 -11 -6 -9 -12
1 -7 -5 -13 -13 -13 -8 0 -16 10 -18 22 -2 13 -10 23 -19 23 -14 0 -14 -2 -1
-22 27 -40 63 -59 142 -73 74 -12 125 -35 81 -35 -23 0 -9 -15 23 -25 21 -6
23 -4 18 13 -5 15 -1 24 14 32 27 14 45 3 28 -17 -20 -25 -18 -41 10 -59 33
-22 64 -23 78 -5 10 13 14 13 29 -3 15 -15 16 -19 4 -26 -11 -7 -10 -10 4 -16
10 -4 23 -2 30 5 6 6 7 11 2 11 -5 0 0 7 11 15 16 12 17 16 4 24 -8 6 -11 14
-6 18 5 4 11 2 13 -4 3 -7 11 -13 19 -13 20 0 17 -18 -5 -29 -33 -18 -34 -41
-2 -52 16 -6 32 -17 35 -25 3 -8 20 -14 43 -15 21 0 32 -3 25 -6 -23 -9 -12
-23 13 -17 16 4 25 2 25 -6 0 -7 6 -10 13 -7 7 3 19 -4 26 -14 6 -11 16 -17
21 -14 6 3 10 1 10 -4 0 -6 14 -11 31 -11 16 0 28 -4 25 -9 -8 -12 31 -44 44
-36 6 4 22 8 36 10 23 2 28 -5 24 -34 -1 -9 4 -12 15 -7 18 6 45 -14 46 -36 0
-7 4 -3 9 10 5 12 17 22 27 22 12 0 14 -3 6 -8 -8 -5 -9 -13 -3 -22 13 -20 12
-33 0 -25 -6 3 -10 1 -10 -5 0 -7 -7 -10 -15 -7 -8 4 -17 2 -20 -3 -4 -6 -1
-10 4 -10 6 0 11 -5 11 -11 0 -6 -7 -9 -15 -5 -9 3 -24 -3 -35 -14 -11 -11
-20 -18 -20 -15 0 3 -9 -4 -20 -15 -11 -11 -29 -20 -40 -20 -11 0 -20 -5 -20
-11 0 -7 -10 -9 -25 -5 -18 5 -25 2 -25 -8 0 -7 -7 -19 -15 -26 -12 -10 -16
-9 -21 5 -6 14 -10 12 -25 -12 -14 -21 -25 -27 -45 -25 -19 3 -25 0 -22 -10 3
-7 12 -13 20 -12 35 3 4 -78 -37 -97 -5 -2 -9 -7 -8 -11 2 -5 -3 -8 -11 -8 -8
0 -22 -8 -32 -17 -21 -22 -45 -23 -62 -3 -12 13 -13 12 -9 -7 3 -12 2 -22 -2
-21 -3 1 -17 -4 -30 -11 -17 -9 -25 -10 -30 -2 -7 11 -51 10 -81 -2 -25 -10
-151 -14 -156 -5 -3 4 -16 8 -30 8 -13 0 -24 4 -24 9 0 4 -12 8 -28 8 -31 1
-49 4 -149 28 -40 9 -75 20 -78 25 -4 7 -81 21 -128 24 -4 1 -11 7 -16 14 -5
8 -12 12 -17 10 -5 -1 -10 7 -12 20 -3 16 -9 21 -20 18 -9 -2 -27 -7 -39 -11
-12 -3 -24 -1 -28 5 -3 5 2 10 13 10 32 0 113 32 119 46 3 8 12 14 20 14 9 0
13 -6 9 -15 -8 -23 16 -18 54 10 28 20 30 25 16 31 -9 4 -15 12 -12 19 7 20
-20 52 -34 39 -12 -12 6 -64 22 -64 4 0 8 -5 8 -12 0 -6 -3 -8 -7 -5 -3 4 -12
2 -19 -4 -7 -5 -14 -6 -17 -2 -3 4 -78 7 -167 6 -125 -2 -171 1 -203 13 -23 8
-66 21 -95 29 -30 7 -59 18 -65 24 -6 6 -20 11 -32 11 -12 0 -25 4 -31 9 -8 9
-44 15 -71 12 -7 -1 -10 -8 -7 -16 4 -8 1 -15 -6 -15 -6 0 -10 8 -9 18 3 37
-1 49 -21 47 -31 -2 -33 -11 -9 -44 16 -23 20 -37 15 -62 -6 -33 16 -85 33
-75 4 3 3 -15 -2 -39 l-10 -45 -19 27 c-10 16 -18 36 -18 46 0 9 -5 17 -11 17
-6 0 -9 9 -6 20 7 26 -10 26 -18 -1 -7 -21 -43 -41 -58 -32 -5 3 10 25 33 48
l43 44 -17 50 c-26 81 -24 88 39 106 30 9 55 20 55 24 0 10 -39 11 -45 0 -4
-5 -14 -9 -23 -9 -9 0 -30 -7 -46 -15 -16 -9 -36 -13 -43 -11 -8 3 -16 -1 -19
-9 -4 -8 -10 -12 -15 -9 -19 11 -7 25 44 50 78 40 111 65 96 74 -7 5 -48 9
-92 9 -62 1 -85 -3 -99 -16 -21 -19 -76 -24 -97 -9 -10 8 -22 1 -47 -28 -35
-40 -42 -56 -24 -56 6 0 10 -11 10 -25 0 -14 -4 -25 -9 -25 -5 0 -11 -9 -14
-20 -3 -11 -10 -20 -16 -20 -10 0 -13 15 -15 86 -1 11 -6 27 -13 35 -6 8 -16
26 -21 40 -8 21 -7 28 9 37 25 16 29 15 29 -8 0 -11 5 -20 10 -20 6 0 10 -7
10 -15 0 -21 32 -1 46 30 11 22 9 23 -30 28 -22 3 -54 9 -70 13 -24 6 -28 4
-24 -8 4 -8 2 -21 -3 -29 -7 -11 -10 -10 -15 6 -5 18 -60 53 -69 44 -5 -6 28
-44 50 -58 15 -10 16 -11 3 -7 -24 7 -23 -15 2 -61 11 -21 20 -46 20 -55 0
-10 4 -26 9 -36 14 -27 29 -102 21 -102 -4 0 -13 6 -19 14 -7 8 -23 17 -36 20
-14 4 -25 10 -25 14 0 4 -10 19 -23 34 -15 20 -26 25 -36 19 -9 -6 -10 -14 -5
-22 5 -8 9 -18 9 -24 0 -5 14 -12 31 -15 44 -9 56 -20 51 -41 -5 -20 9 -27 15
-8 2 7 16 1 34 -14 l30 -26 29 25 c37 32 51 31 27 -4 -18 -26 -18 -28 -1 -44
9 -9 20 -14 23 -11 9 9 86 -58 87 -75 0 -14 2 -13 9 3 7 18 8 19 15 2 4 -9 2
-24 -5 -32 -9 -11 -9 -15 -1 -15 6 0 16 11 21 25 11 30 40 24 37 -8 -2 -17 3
-22 23 -22 18 0 25 -6 25 -20 0 -16 6 -19 29 -17 17 2 25 -1 22 -7 -9 -14 60
-42 81 -34 11 4 14 3 9 -5 -4 -7 -1 -12 9 -12 11 0 15 -5 11 -15 -4 -11 2 -15
24 -15 17 0 30 5 30 12 0 6 2 9 5 6 11 -11 -8 -38 -26 -38 -10 0 -19 -5 -19
-12 0 -6 3 -8 7 -5 3 4 12 2 18 -3 9 -7 16 -6 25 5 21 25 32 17 14 -10 -13
-21 -14 -24 -2 -20 8 3 28 1 43 -5 23 -9 26 -13 15 -20 -12 -7 -12 -10 3 -16
9 -3 24 -1 32 6 12 10 15 10 15 -1 0 -8 9 -20 20 -27 11 -7 20 -8 20 -3 0 5 7
11 14 14 10 4 13 1 9 -9 -3 -7 -2 -22 2 -31 6 -16 8 -15 16 5 9 25 11 24 64
-24 18 -16 26 -19 35 -10 10 8 10 6 1 -12 -10 -18 -9 -23 4 -28 21 -8 49 16
35 30 -22 22 -8 26 21 5 28 -20 31 -25 25 -60 -4 -22 -2 -39 3 -39 5 0 11 12
13 26 2 15 13 34 26 42 13 8 22 11 21 6 -1 -5 -1 -16 0 -24 1 -11 4 -11 13 -2
7 7 16 12 22 12 6 0 5 -5 -2 -12 -7 -7 -12 -28 -12 -47 0 -38 7 -38 13 0 5 28
18 29 28 2 5 -16 7 -16 13 4 4 11 14 24 23 28 15 5 15 4 0 -13 -21 -23 -23
-39 -2 -22 8 6 19 9 25 5 6 -4 18 1 25 11 13 17 14 17 15 2 0 -11 5 -15 14
-12 7 3 16 -2 20 -12 4 -12 2 -15 -9 -10 -9 3 -15 0 -15 -9 0 -20 -16 -19 -24
1 -10 26 -23 7 -18 -26 4 -30 5 -30 24 -14 17 16 18 17 12 1 -3 -9 -4 -17 -2
-17 14 0 50 41 58 67 13 36 40 37 71 2 15 -16 20 -18 16 -7 -3 10 -2 20 3 23
6 4 10 -3 10 -15 0 -17 3 -19 19 -10 27 14 34 13 28 -4 -4 -10 0 -12 14 -9 10
3 19 0 19 -6 0 -6 -7 -11 -16 -11 -12 0 -14 -3 -6 -13 8 -9 6 -21 -8 -42 -11
-17 -20 -38 -20 -47 0 -17 -79 -88 -98 -88 -6 0 -12 -4 -14 -9 -4 -12 -109
-64 -115 -57 -3 3 -12 -2 -20 -10 -9 -8 -22 -13 -30 -10 -8 3 -24 1 -36 -6
-12 -6 -35 -13 -52 -16 -60 -8 -260 -7 -280 2 -11 5 -30 8 -42 7 -13 -1 -23 3
-23 9 0 6 -4 8 -10 5 -12 -7 -119 19 -165 41 -18 8 -39 14 -47 13 -13 -2 -31
3 -73 21 -49 21 -99 30 -107 18 -4 -7 -10 -9 -13 -6 -14 13 7 28 39 28 35 0
105 30 124 53 16 19 -9 54 -29 42 -7 -5 -27 -9 -44 -10 -16 0 -35 -3 -41 -7
-5 -4 -46 -9 -90 -11 -62 -3 -103 1 -194 23 -181 44 -221 57 -249 84 -15 15
-37 26 -50 26 -39 0 -13 19 37 26 57 8 148 57 157 84 8 26 -4 47 -16 29 -7
-12 -9 -11 -9 1 -1 12 -4 11 -15 -3 -9 -13 -20 -17 -33 -13 -11 4 -24 2 -27
-5 -11 -16 -198 -2 -255 20 -26 10 -62 16 -83 13 -23 -3 -37 0 -37 7 0 6 5 11
11 11 6 0 27 7 46 16 29 14 33 21 28 42 -4 16 0 31 11 43 19 21 13 35 -11 26
-8 -4 -15 -18 -15 -31 0 -15 -8 -30 -19 -36 -27 -14 -84 -13 -99 2 -9 9 -12 8
-12 -4 0 -9 9 -19 19 -23 11 -3 22 -13 25 -21 4 -12 2 -15 -9 -10 -8 3 -15 1
-15 -3 0 -5 6 -12 13 -14 6 -3 -3 -6 -21 -6 -30 -1 -32 -3 -26 -28 3 -16 19
-57 35 -92 36 -78 36 -84 4 -37 -14 20 -25 41 -25 47 0 5 -7 26 -16 47 -9 20
-18 46 -19 57 -2 11 -8 48 -14 82 -7 34 -9 73 -6 86 7 28 -12 47 -21 23 -3 -9
-14 -16 -24 -16 -16 0 -18 -6 -13 -38 3 -20 3 -34 -1 -31 -4 4 -9 22 -11 40
-5 38 -25 64 -25 34 -1 -16 -4 -13 -17 10 -9 17 -29 46 -44 66 -16 20 -26 39
-23 42 7 7 -25 16 -76 21 -29 3 -35 7 -35 27 0 18 8 26 33 34 26 7 32 14 32
38 0 15 -3 26 -8 24 -45 -27 -116 -50 -157 -51 -27 -1 -60 -8 -71 -16 -21 -15
-22 -24 -10 -71 3 -13 -1 -8 -10 11 -9 19 -18 49 -21 67 -5 27 -2 34 18 42 75
29 77 30 39 28 -19 0 -45 2 -58 7 -22 7 -22 7 -22 -91 1 -90 26 -253 42 -269
10 -9 -20 -37 -31 -29 -6 3 -8 15 -6 27 4 17 2 19 -8 9 -9 -9 -8 -18 5 -41 13
-23 14 -30 4 -30 -8 0 -17 7 -20 16 -3 9 -12 14 -20 11 -11 -4 -13 3 -10 34 3
29 0 39 -11 39 -8 0 -15 -4 -15 -10 0 -10 -32 -2 -40 11 -3 4 -12 4 -20 -1
-11 -7 -11 -12 -2 -23 7 -7 9 -17 5 -20 -12 -12 26 -18 46 -7 17 9 21 8 21 -5
0 -9 -4 -13 -10 -10 -5 3 -7 0 -4 -9 6 -16 32 -29 44 -21 4 3 11 -6 14 -20 7
-28 21 -33 30 -10 3 8 15 15 26 15 21 0 26 10 11 25 -6 6 -3 16 7 25 14 13 15
12 9 -4 -5 -13 -2 -19 13 -23 11 -3 20 -11 20 -17 0 -7 11 -23 25 -36 30 -28
34 -51 4 -24 -15 14 -22 15 -28 6 -6 -10 -11 -9 -21 3 -7 8 -19 15 -26 15 -8
0 -14 5 -14 12 0 6 -3 8 -6 5 -4 -4 1 -18 10 -32 13 -19 23 -24 43 -20 17 3
31 -2 39 -13 17 -21 18 -40 2 -24 -16 16 -28 15 -28 -3 0 -8 -4 -15 -10 -15
-22 0 -8 -32 18 -43 24 -10 27 -16 21 -37 -4 -14 -7 -20 -8 -13 -1 7 -8 10
-16 6 -25 -9 -57 25 -45 48 9 15 4 22 -30 41 -22 13 -40 28 -40 34 0 9 -41 34
-56 34 -3 0 18 -23 47 -50 46 -44 53 -56 51 -83 -2 -22 0 -28 6 -18 5 7 12 9
15 5 3 -5 -1 -15 -9 -22 -11 -10 -19 -6 -45 19 -24 23 -29 33 -19 39 7 5 20 6
29 3 13 -5 13 -3 -2 13 -15 16 -19 17 -27 4 -7 -12 -11 -8 -16 18 -4 21 -10
30 -16 24 -6 -6 -6 -18 2 -32 6 -12 9 -24 6 -28 -3 -3 -6 0 -6 6 0 6 -7 9 -15
6 -22 -9 -18 -22 7 -27 20 -3 21 -4 5 -11 -23 -11 -46 9 -40 34 3 11 9 17 14
14 5 -3 9 0 9 6 0 6 -11 15 -24 20 -13 5 -29 17 -35 27 -6 10 -11 14 -11 10 0
-5 10 -22 21 -39 16 -22 18 -33 10 -41 -8 -8 -6 -16 6 -29 23 -26 11 -32 -15
-8 -20 19 -22 19 -22 4 0 -10 10 -28 22 -41 20 -22 16 -29 -14 -24 -5 0 -8 -6
-8 -14 0 -9 6 -12 15 -9 8 3 22 -1 30 -10 21 -21 42 -21 25 -1 -7 9 -8 15 -2
15 5 0 12 -7 16 -15 3 -8 10 -15 16 -15 15 0 40 -25 40 -39 0 -6 5 -11 11 -11
5 0 7 4 4 10 -8 13 5 13 25 0 10 -6 11 -10 3 -10 -7 0 -13 -4 -13 -10 0 -5 9
-10 20 -10 10 0 24 -9 30 -21 16 -29 6 -35 -19 -10 -13 13 -21 16 -21 9 -1 -8
-6 -6 -14 4 -7 10 -15 15 -18 12 -8 -8 41 -54 54 -51 7 1 12 -3 13 -10 0 -24
13 -23 19 2 8 32 24 33 22 0 0 -14 -5 -25 -10 -25 -13 0 25 -40 38 -40 6 0 23
-13 39 -29 18 -19 36 -27 52 -25 14 1 25 -2 25 -7 0 -5 -4 -9 -10 -9 -23 0 -8
-21 20 -26 16 -4 48 -24 71 -45 23 -22 48 -39 56 -39 7 0 13 -7 13 -15 0 -9
11 -20 25 -25 14 -5 25 -13 25 -17 0 -5 13 -14 28 -21 15 -6 45 -28 66 -47 21
-19 46 -35 55 -36 11 0 12 -2 3 -6 -10 -4 -9 -9 4 -24 9 -10 21 -19 27 -19 5
0 28 -20 51 -45 24 -25 48 -45 54 -45 7 0 12 -4 12 -10 0 -5 -4 -10 -8 -10 -5
0 -9 -6 -9 -13 0 -9 9 -12 23 -9 25 4 45 -11 57 -42 5 -13 11 -15 20 -9 16 13
52 2 52 -17 0 -8 5 -14 11 -13 7 1 19 -6 28 -16 16 -18 16 -20 -6 -40 -16 -16
-19 -24 -11 -29 8 -5 9 -12 2 -22 -8 -12 -14 -9 -39 18 -16 17 -36 32 -45 32
-8 0 -22 11 -30 24 -9 13 -30 30 -48 37 -18 7 -36 19 -40 26 -4 7 -17 13 -28
13 -11 0 -18 4 -15 9 4 5 -13 16 -36 23 -24 8 -43 19 -43 24 0 5 -4 15 -8 21
-6 9 -2 13 12 13 12 0 21 5 21 10 0 6 -15 8 -39 4 -49 -8 -101 19 -94 47 3 10
3 26 -1 35 -5 14 -9 13 -32 -5 -21 -16 -30 -18 -40 -10 -8 6 -14 18 -14 25 0
8 -5 14 -11 14 -5 0 -7 5 -4 10 4 6 3 9 -2 8 -4 -2 -24 7 -43 19 -20 12 -47
20 -62 19 -15 -2 -25 0 -23 4 3 5 -2 10 -9 13 -8 3 -17 1 -19 -6 -2 -7 -10 0
-17 15 -12 25 -36 41 -65 42 -19 2 -57 34 -51 44 7 11 -35 48 -65 57 -10 4
-19 13 -19 21 0 8 -11 19 -24 24 -13 5 -27 14 -31 20 -6 9 -10 9 -16 -1 -7
-12 -12 -12 -30 -1 -11 8 -18 9 -14 3 9 -15 -8 -14 -23 1 -9 9 -12 -66 -12
-340 l0 -352 118 1 c74 1 120 6 124 13 6 8 8 7 8 -1 0 -10 92 -13 428 -13 241
0 421 4 413 9 -10 6 -11 13 -2 29 7 14 8 23 1 27 -14 9 -12 26 3 24 6 -1 20 1
30 6 20 8 57 -23 61 -53 2 -10 14 -18 29 -20 15 -2 27 -8 27 -13 0 -5 330 -9
848 -9 l849 0 129 116 c71 64 191 173 268 243 76 69 198 180 271 246 195 177
615 565 655 605 20 19 57 60 84 90 l48 55 -38 -56 c-22 -30 -75 -87 -119 -126
-44 -38 -134 -122 -200 -186 -100 -98 -113 -113 -78 -95 23 12 39 26 36 31 -3
6 -1 7 5 3 6 -4 33 14 59 38 58 54 172 149 193 160 31 16 -106 -108 -160 -144
-4 -3 -12 -15 -19 -28 -11 -22 -11 -22 8 -10 12 7 21 17 21 21 0 5 7 7 14 4
11 -4 13 -1 9 11 -6 15 -5 15 10 4 14 -12 24 -7 75 42 32 31 59 62 60 68 2 7
3 25 5 40 1 16 12 35 27 45 14 9 28 21 31 26 3 5 9 2 12 -6 7 -20 -37 -62 -55
-51 -10 6 -10 4 1 -9 7 -9 9 -17 3 -17 -5 0 -13 -8 -16 -17 -8 -19 104 83 171
156 24 25 43 40 43 33 0 -16 -53 -74 -197 -215 -62 -61 -113 -115 -113 -120 0
-6 26 17 59 49 32 33 85 80 116 104 32 25 82 69 112 99 52 53 85 68 41 19 -13
-14 -33 -36 -45 -49 -12 -13 -41 -42 -65 -64 -24 -21 -37 -33 -30 -25 6 8 12
19 12 25 -1 5 -14 -5 -30 -24 -16 -19 -27 -37 -23 -40 3 -3 8 0 10 7 3 6 17
12 31 12 l27 0 -31 -19 c-20 -12 -35 -33 -45 -63 -11 -36 -34 -65 -113 -139
-55 -52 -97 -85 -93 -74 4 11 -19 -9 -52 -45 -57 -61 -71 -82 -54 -79 33 5 34
-4 7 -33 -17 -18 -46 -53 -64 -78 -19 -25 -66 -76 -105 -113 -156 -152 -225
-222 -225 -230 0 -10 49 32 143 122 128 122 181 176 179 184 -2 5 2 6 7 3 5
-4 16 1 24 9 9 8 19 15 24 15 4 -1 -3 -10 -17 -21 -14 -12 -86 -80 -160 -153
-74 -72 -169 -158 -210 -190 -41 -33 -92 -75 -113 -95 -20 -19 -37 -31 -37
-25 0 5 45 56 100 112 55 57 113 123 130 146 16 24 49 59 72 77 24 19 79 72
123 118 44 47 92 98 108 114 15 16 27 29 27 31 0 1 -9 2 -20 3 -12 1 -20 -4
-20 -13 0 -8 -5 -12 -10 -9 -6 4 -9 3 -8 -2 5 -19 -15 -53 -29 -51 -10 2 -30
-16 -49 -42 -41 -56 -47 -62 -120 -130 -32 -30 -70 -70 -84 -89 -14 -19 -33
-34 -43 -34 -9 0 -27 -11 -39 -24 -24 -26 -19 -32 7 -7 9 9 18 14 21 11 3 -3
-19 -25 -48 -50 -85 -73 -114 -99 -98 -91 13 7 13 5 1 -9 -17 -21 -35 -22 -27
-2 5 13 2 14 -16 4 -16 -9 -18 -13 -7 -20 13 -8 12 -10 -10 -13 -5 0 -13 -5
-18 -10 -5 -5 -2 -6 6 -1 9 5 12 4 7 -3 -4 -6 -13 -9 -20 -6 -9 3 -17 -3 -21
-15 -3 -12 -10 -19 -15 -16 -4 3 -10 -2 -14 -10 -10 -28 35 -10 76 31 40 40
45 21 5 -23 -12 -14 -15 -23 -8 -23 6 0 14 7 18 16 4 10 8 12 12 5 5 -7 30 9
67 41 94 82 105 87 25 9 -41 -39 -68 -71 -60 -71 19 0 189 158 207 192 15 26
52 54 52 38 0 -5 -50 -59 -111 -120 -61 -60 -104 -110 -97 -110 8 0 27 13 43
30 16 17 34 30 39 31 6 0 36 29 66 64 30 35 97 101 149 147 51 46 111 101 133
123 24 24 35 31 29 18 -6 -12 -14 -23 -18 -25 -5 -1 -23 -20 -40 -41 -18 -20
-34 -36 -36 -35 -3 3 -135 -111 -151 -131 -6 -7 -47 -51 -90 -97 -44 -46 -73
-84 -65 -84 8 0 30 16 49 35 18 19 36 33 38 30 3 -2 13 7 24 20 11 14 25 25
32 25 7 0 55 44 107 98 52 53 119 120 149 149 94 88 199 212 160 188 -9 -5
-11 -4 -6 4 4 6 11 9 15 7 4 -3 43 33 86 79 43 47 81 83 83 80 3 -3 -32 -45
-79 -94 -151 -159 -217 -243 -144 -183 12 9 1 -1 -23 -23 -25 -22 -106 -98
-181 -170 -75 -72 -165 -156 -200 -188 -68 -62 -59 -80 13 -25 l41 32 -29 -32
-30 -32 712 0 712 0 0 2560 0 2560 -2560 0 -2560 0 0 -1089z m4070 721 c0 -19
-23 -32 -37 -21 -20 17 -15 29 12 29 14 0 25 -4 25 -8z m105 -2 c-3 -5 -12
-10 -20 -10 -8 0 -17 5 -20 10 -4 6 5 10 20 10 15 0 24 -4 20 -10z m-159 -87
c-10 -10 -19 5 -10 18 6 11 8 11 12 0 2 -7 1 -15 -2 -18z m-301 -3 c3 -5 -2
-10 -12 -10 -10 0 -29 -7 -41 -16 -15 -10 -22 -11 -22 -3 0 27 61 51 75 29z
m-81 -71 c-12 -19 -34 -8 -32 16 2 22 4 23 20 8 10 -8 15 -20 12 -24z m156 11
c0 -5 -4 -10 -10 -10 -5 0 -10 5 -10 10 0 6 5 10 10 10 6 0 10 -4 10 -10z
m848 -21 c-2 -6 -8 -10 -13 -10 -5 0 -11 4 -13 10 -2 6 4 11 13 11 9 0 15 -5
13 -11z m-890 -57 c6 -18 -15 -14 -22 4 -4 10 -1 14 6 12 6 -2 14 -10 16 -16z
m219 -8 c-3 -3 -12 -4 -19 -1 -8 3 -5 6 6 6 11 1 17 -2 13 -5z m441 -24 c26
-34 27 -46 8 -53 -17 -7 -36 11 -36 34 0 10 -5 21 -10 24 -11 7 -4 25 9 25 4
0 17 -13 29 -30z m-128 -55 c0 -20 -26 -19 -34 1 -11 28 -7 35 14 24 11 -6 20
-17 20 -25z m-332 3 c-7 -19 -38 -22 -38 -4 0 10 9 16 21 16 12 0 19 -5 17
-12z m32 -8 c0 -5 -4 -10 -10 -10 -5 0 -10 5 -10 10 0 6 5 10 10 10 6 0 10 -4
10 -10z m505 -150 c-5 -8 -11 -8 -17 -2 -6 6 -7 16 -3 22 5 8 11 8 17 2 6 -6
7 -16 3 -22z m305 -76 c0 -14 8 -25 21 -29 24 -8 20 -26 -9 -41 -12 -6 -30
-19 -41 -28 -25 -23 -31 -11 -21 43 4 23 5 52 2 63 -6 24 17 41 35 26 7 -6 13
-21 13 -34z m-290 16 c0 -5 -5 -10 -11 -10 -5 0 -7 5 -4 10 3 6 8 10 11 10 2
0 4 -4 4 -10z m212 -146 c5 -46 -4 -50 -31 -13 -16 22 -21 38 -16 56 6 24 7
24 24 8 11 -9 21 -32 23 -51z m-492 -504 c0 -5 -8 -10 -17 -10 -15 0 -16 2 -3
10 19 12 20 12 20 0z m-140 -240 c0 -5 -5 -10 -11 -10 -5 0 -7 5 -4 10 3 6 8
10 11 10 2 0 4 -4 4 -10z m-2545 -10 c6 -10 -63 -46 -71 -37 -10 10 9 36 29
40 12 2 25 5 29 6 4 0 10 -4 13 -9z m-671 -32 c3 -13 6 -25 6 -28 0 -3 -18 -4
-41 -2 -22 3 -46 -1 -52 -7 -6 -6 -20 -11 -31 -11 -28 0 -10 16 50 45 62 29
60 29 68 3z m3231 -159 c0 -13 4 -30 8 -36 5 -9 3 -13 -8 -13 -11 0 -15 8 -13
28 1 15 -2 34 -6 41 -6 9 -4 12 5 9 8 -3 14 -16 14 -29z m-3439 -86 c-7 -7
-26 7 -26 19 0 6 6 6 15 -2 9 -7 13 -15 11 -17z m3525 -37 c-5 -6 -7 -29 -5
-51 l5 -40 -22 33 c-16 25 -19 36 -10 41 7 4 11 12 10 17 -5 27 1 36 16 24 10
-8 12 -17 6 -24z m32 -56 c6 -24 -8 -36 -17 -14 -8 22 -7 34 3 34 5 0 11 -9
14 -20z m-25 -62 c0 -31 18 -96 30 -111 8 -10 2 -20 -24 -40 -18 -15 -34 -35
-34 -44 0 -9 -3 -13 -7 -10 -10 10 -33 -13 -33 -33 0 -10 6 -21 13 -23 7 -3 5
-6 -5 -6 -31 -2 -22 46 17 86 19 20 35 42 35 49 0 7 6 14 13 17 9 3 9 8 -2 21
-8 9 -11 19 -8 23 4 3 0 14 -7 25 -13 19 -10 68 4 68 4 0 8 -10 8 -22z m36 16
c16 -6 22 -35 9 -47 -10 -11 -33 13 -33 34 0 21 1 22 24 13z m26 -101 c0 -25
-15 -12 -17 14 -1 19 1 22 8 12 5 -8 9 -20 9 -26z m57 -58 c-4 -8 -13 -15 -22
-15 -13 0 -12 3 3 18 19 21 27 20 19 -3z m-67 -15 c0 -5 -4 -10 -8 -10 -4 0
-8 -10 -9 -22 -2 -17 -22 -42 -29 -35 -8 7 23 77 33 77 7 0 13 -4 13 -10z
m-127 -14 c5 -14 -31 -56 -48 -56 -5 0 0 6 10 14 10 7 16 20 12 29 -6 15 0 27
14 27 4 0 9 -6 12 -14z m159 -48 c-7 -7 -12 -8 -12 -2 0 6 3 14 7 17 3 4 9 5
12 2 2 -3 -1 -11 -7 -17z m-110 -30 c-7 -7 -12 -8 -12 -2 0 6 3 14 7 17 3 4 9
5 12 2 2 -3 -1 -11 -7 -17z m63 13 c3 -5 1 -12 -5 -16 -5 -3 -10 1 -10 9 0 18
6 21 15 7z m-280 -31 c3 -5 2 -10 -4 -10 -5 0 -13 5 -16 10 -3 6 -2 10 4 10 5
0 13 -4 16 -10z m105 -5 c-7 -9 -15 -13 -17 -11 -7 7 7 26 19 26 6 0 6 -6 -2
-15z m60 -16 c0 -6 -8 -9 -18 -7 -12 4 -27 -5 -42 -24 -30 -38 -38 -28 -9 11
22 30 69 44 69 20z m-108 -42 c-23 -24 -30 -43 -12 -32 5 3 18 1 27 -4 10 -6
12 -11 6 -11 -7 0 -13 -8 -14 -17 0 -14 -2 -15 -6 -3 -3 8 -11 18 -17 22 -13
9 -39 -29 -30 -44 4 -7 3 -8 -4 -4 -8 4 -10 -3 -7 -24 2 -17 -1 -30 -7 -30 -6
0 -8 9 -5 20 4 15 0 20 -16 20 -16 0 -18 -3 -10 -11 6 -6 9 -18 6 -25 -3 -8 0
-14 6 -14 14 0 15 -37 1 -45 -5 -3 -10 -16 -10 -28 0 -19 1 -20 16 -5 9 8 17
27 17 42 1 14 3 26 4 26 1 0 8 -3 17 -6 14 -5 14 -9 -2 -37 -18 -34 -19 -38
-21 -75 -1 -25 -21 -21 -21 4 0 9 -7 22 -16 31 -8 9 -14 25 -13 37 0 11 1 24
0 29 -1 4 -1 9 -1 12 1 3 -6 13 -15 21 -17 18 -20 34 -5 34 6 0 10 7 10 15 0
8 7 33 16 56 12 29 19 37 25 27 13 -20 11 -45 -7 -62 -8 -9 -11 -16 -6 -16 12
0 72 88 72 105 0 19 23 36 34 25 6 -6 2 -18 -12 -33z m113 -16 c-3 -12 -11
-19 -16 -16 -5 4 -3 14 3 25 15 24 22 19 13 -9z m-42 -6 c4 -8 2 -17 -3 -20
-6 -4 -10 3 -10 14 0 25 6 27 13 6z m197 11 c0 -3 -4 -8 -10 -11 -5 -3 -10 -1
-10 4 0 6 5 11 10 11 6 0 10 -2 10 -4z m-120 -40 c0 -3 -4 -8 -10 -11 -5 -3
-10 -1 -10 4 0 6 5 11 10 11 6 0 10 -2 10 -4z m-60 -27 c0 -6 -6 -9 -12 -6 -7
2 -18 -3 -25 -12 -11 -14 -12 -14 -13 1 0 9 8 21 17 27 19 10 33 6 33 -10z
m-104 -44 c-4 -14 -10 -25 -15 -25 -5 0 -4 16 2 36 12 39 23 29 13 -11z m172
-20 c-6 -14 -13 -23 -15 -21 -5 5 15 46 22 46 3 0 -1 -11 -7 -25z m-38 -5 c0
-5 -4 -10 -10 -10 -5 0 -10 5 -10 10 0 6 5 10 10 10 6 0 10 -4 10 -10z m-67
-50 c-3 -11 -7 -20 -9 -20 -2 0 -4 9 -4 20 0 11 4 20 9 20 5 0 7 -9 4 -20z
m-685 -20 c27 -25 32 -25 32 1 0 14 4 18 13 12 6 -4 20 -6 30 -5 13 3 17 -4
17 -24 0 -27 -1 -27 -15 -8 -12 15 -14 16 -15 3 0 -24 -57 -21 -64 4 -2 10 -9
16 -14 13 -6 -3 -8 -15 -5 -26 6 -21 36 -35 54 -24 8 5 9 3 3 -7 -4 -8 -7 -24
-6 -36 3 -17 -5 -26 -35 -40 -21 -10 -39 -27 -41 -38 -2 -11 -9 -24 -14 -30
-7 -7 -8 -3 -3 13 4 14 2 22 -5 22 -6 0 -8 5 -3 13 4 6 8 16 8 21 0 5 9 10 19
12 46 7 66 15 60 25 -4 8 -9 7 -14 -2 -7 -10 -12 -10 -23 -1 -8 7 -21 10 -30
6 -8 -3 -18 0 -22 6 -4 7 0 10 11 8 11 -2 20 4 22 16 2 11 0 16 -7 12 -6 -4
-11 -2 -11 3 0 6 5 11 11 11 6 0 9 7 5 15 -6 17 2 45 13 45 4 0 17 -9 29 -20z
m772 6 c0 -3 -4 -8 -10 -11 -5 -3 -10 -1 -10 4 0 6 5 11 10 11 6 0 10 -2 10
-4z m-169 -73 c-8 -15 -10 -11 -9 17 0 19 3 40 7 45 10 17 13 -44 2 -62z m63
31 c3 -8 2 -12 -4 -9 -6 3 -10 10 -10 16 0 14 7 11 14 -7z m-523 -44 c5 0 7
-15 5 -32 -2 -18 -4 -39 -5 -45 0 -7 -8 -13 -16 -13 -18 0 -18 5 -4 31 8 16 6
23 -13 39 -23 19 -23 19 -3 34 17 13 20 13 23 0 2 -8 8 -14 13 -14z m-361 10
c0 -5 -2 -10 -4 -10 -3 0 -8 5 -11 10 -3 6 -1 10 4 10 6 0 11 -4 11 -10z m457
-18 c-10 -10 -17 -28 -17 -39 0 -12 -8 -23 -20 -26 -13 -3 -20 -14 -20 -29 -1
-19 -2 -20 -10 -7 -5 9 -8 30 -7 46 1 23 7 30 22 29 11 -1 28 9 38 21 10 13
21 23 24 23 3 0 -1 -8 -10 -18z m143 -2 c0 -5 -2 -10 -4 -10 -3 0 -8 5 -11 10
-3 6 -1 10 4 10 6 0 11 -4 11 -10z m301 -22 c-3 -21 -6 -26 -9 -15 -3 17 3 47
11 47 2 0 1 -15 -2 -32z m-81 13 c0 -6 -4 -13 -10 -16 -5 -3 -10 1 -10 9 0 9
5 16 10 16 6 0 10 -4 10 -9z m-520 -11 c0 -5 -2 -10 -4 -10 -3 0 -8 5 -11 10
-3 6 -1 10 4 10 6 0 11 -4 11 -10z m211 -10 c13 8 19 8 19 -1 0 -6 -9 -13 -20
-16 -20 -5 -28 -23 -10 -23 6 0 10 -5 10 -12 0 -6 -3 -8 -6 -5 -4 3 -16 1 -27
-5 -18 -9 -19 -8 -12 8 5 11 8 32 8 48 0 22 2 25 9 12 7 -12 13 -14 29 -6z
m-376 0 c3 -5 1 -10 -4 -10 -6 0 -11 5 -11 10 0 6 2 10 4 10 3 0 8 -4 11 -10z
m520 -21 c-1 -11 -7 -24 -15 -29 -7 -5 -10 -15 -6 -25 5 -15 4 -16 -8 -6 -11
9 -12 19 -3 46 11 38 35 48 32 14z m-85 -14 c0 -8 -4 -17 -10 -20 -5 -3 -10
-2 -10 4 0 5 -3 17 -6 25 -5 12 -2 15 10 10 9 -3 16 -12 16 -19z m-310 -6 c0
-5 -7 -9 -15 -9 -9 0 -12 6 -9 15 6 15 24 11 24 -6z m470 -19 c0 -11 -4 -20
-9 -20 -5 0 -7 9 -4 20 3 11 7 20 9 20 2 0 4 -9 4 -20z m72 2 c-7 -2 -12 -11
-12 -19 0 -9 6 -13 15 -9 17 6 21 -9 4 -20 -18 -11 -32 13 -25 41 4 16 11 23
18 19 9 -6 9 -9 0 -12z m-377 -12 c-3 -10 -1 -29 6 -41 10 -19 9 -21 -4 -16
-9 3 -18 1 -21 -6 -2 -7 -3 2 -1 18 3 32 14 65 22 65 2 0 2 -9 -2 -20z m-79
-25 c2 -21 -1 -24 -12 -14 -17 14 -19 50 -1 44 6 -3 13 -17 13 -30z m-98 -8
c2 -9 -2 -17 -8 -17 -6 0 -8 5 -4 12 5 8 2 9 -9 5 -17 -6 -23 4 -10 17 11 10
28 1 31 -17z m262 14 c0 -5 -7 -14 -15 -21 -8 -7 -14 -20 -13 -28 2 -9 -5 -18
-14 -20 -14 -3 -16 1 -10 15 18 45 52 80 52 54z m-194 -48 c-8 -8 -12 -3 -21
27 l-7 25 17 -23 c9 -13 14 -26 11 -29z m244 38 c0 -6 -4 -12 -8 -15 -5 -3 -9
1 -9 9 0 8 4 15 9 15 4 0 8 -4 8 -9z m80 -15 c0 -15 -18 -31 -26 -23 -7 7 7
37 17 37 5 0 9 -6 9 -14z m47 -48 c-3 -7 -5 -2 -5 12 0 14 2 19 5 13 2 -7 2
-19 0 -25z m-287 8 c0 -3 -4 -8 -10 -11 -5 -3 -10 -1 -10 4 0 6 5 11 10 11 6
0 10 -2 10 -4z m222 -28 c-7 -7 -12 -8 -12 -2 0 14 12 26 19 19 2 -3 -1 -11
-7 -17z m-192 -2 c0 -3 -4 -8 -10 -11 -5 -3 -10 -1 -10 4 0 6 5 11 10 11 6 0
10 -2 10 -4z m294 -41 c-4 -8 -8 -15 -10 -15 -2 0 -4 7 -4 15 0 8 4 15 10 15
5 0 7 -7 4 -15z m-329 -25 c3 -5 1 -10 -4 -10 -6 0 -11 5 -11 10 0 6 2 10 4
10 3 0 8 -4 11 -10z m215 -90 c0 -5 -2 -10 -4 -10 -3 0 -8 5 -11 10 -3 6 -1
10 4 10 6 0 11 -4 11 -10z m-2260 -10 c0 -5 -2 -10 -4 -10 -3 0 -8 5 -11 10
-3 6 -1 10 4 10 6 0 11 -4 11 -10z m213 -52 c-33 -9 -40 -4 -24 16 10 12 16
13 32 3 18 -11 18 -12 -8 -19z m-3 -48 c0 -5 -5 -10 -11 -10 -5 0 -7 5 -4 10
3 6 8 10 11 10 2 0 4 -4 4 -10z m-188 -32 c-6 -6 -15 -8 -19 -4 -4 4 -1 11 7
16 19 12 27 3 12 -12z m342 -4 c4 -10 1 -14 -6 -12 -15 5 -23 28 -10 28 5 0
13 -7 16 -16z m-444 -34 c0 -5 -2 -10 -4 -10 -3 0 -8 5 -11 10 -3 6 -1 10 4
10 6 0 11 -4 11 -10z m510 -40 c0 -5 -5 -10 -11 -10 -5 0 -7 5 -4 10 3 6 8 10
11 10 2 0 4 -4 4 -10z m2205 -61 c10 -15 -1 -23 -20 -15 -9 3 -13 10 -10 16 8
13 22 13 30 -1z m-235 -7 c0 -21 -26 -41 -40 -32 -13 8 -12 11 5 24 22 17 35
20 35 8z m510 -58 c0 -17 -22 -14 -28 4 -2 7 3 12 12 12 9 0 16 -7 16 -16z
m-3990 -75 c0 -6 -4 -7 -10 -4 -5 3 -10 11 -10 16 0 6 5 7 10 4 6 -3 10 -11
10 -16z m1470 2 c0 -5 -7 -11 -15 -15 -15 -5 -20 5 -8 17 9 10 23 9 23 -2z
m2102 -16 c0 -5 -5 -11 -11 -13 -6 -2 -11 4 -11 13 0 9 5 15 11 13 6 -2 11 -8
11 -13z m228 -15 c0 -5 -5 -10 -11 -10 -5 0 -7 5 -4 10 3 6 8 10 11 10 2 0 4
-4 4 -10z m-3972 -35 c-3 -3 -9 2 -12 12 -6 14 -5 15 5 6 7 -7 10 -15 7 -18z
m-198 -65 c0 -5 -5 -10 -11 -10 -5 0 -7 5 -4 10 3 6 8 10 11 10 2 0 4 -4 4
-10z m2675 -20 c-27 -12 -43 -12 -25 0 8 5 22 9 30 9 10 0 8 -3 -5 -9z m-2070
-40 l6 -25 -20 25 c-11 13 -17 28 -14 33 7 12 19 -3 28 -33z m3795 27 c0 -2
-9 -12 -20 -22 -24 -21 -27 -14 -4 9 15 15 24 20 24 13z m94 -79 c-29 -58 -85
-137 -96 -138 -17 0 -6 25 35 78 24 32 49 69 57 85 7 15 17 27 22 27 5 0 -4
-23 -18 -52z m-144 25 c-1 -10 -36 -53 -44 -53 -13 0 -5 34 12 46 19 15 32 18
32 7z m180 -43 c-6 -12 -14 -19 -17 -17 -2 3 1 15 7 27 6 12 14 19 17 17 2 -3
-1 -15 -7 -27z m40 -3 c0 -7 -7 -22 -15 -33 -13 -17 -13 -16 -3 14 13 34 18
40 18 19z m-69 -58 c-5 -13 -21 -35 -36 -49 -26 -24 -26 -23 6 28 33 54 47 63
30 21z m32 -29 c-3 -12 -8 -19 -11 -16 -5 6 5 36 12 36 2 0 2 -9 -1 -20z m-96
-55 c35 -23 41 -64 13 -87 -12 -10 -27 -18 -32 -18 -6 0 0 9 13 19 36 29 18
70 -41 94 -42 16 -42 17 -11 12 19 -3 45 -12 58 -20z m-4137 -17 c0 -6 -7 -7
-16 -4 -8 3 -12 2 -9 -4 3 -6 -3 -10 -13 -10 -29 0 -36 28 -9 32 28 5 47 -1
47 -14z m294 7 c23 -17 13 -34 -11 -19 -19 12 -29 34 -16 34 4 0 17 -7 27 -15z
m-416 -17 c7 -7 12 -18 12 -25 0 -11 -4 -11 -20 -1 -11 7 -20 18 -20 25 0 16
12 17 28 1z m-118 -33 c7 -9 8 -15 2 -15 -5 0 -12 7 -16 15 -3 8 -4 15 -2 15
2 0 9 -7 16 -15z m4230 -68 c0 -19 -35 -49 -45 -40 -4 5 -6 3 -2 -2 3 -6 -44
-62 -104 -125 -60 -63 -109 -112 -109 -108 0 3 19 25 42 47 23 22 39 43 35 47
-4 4 -17 -2 -30 -14 -13 -12 -29 -22 -35 -22 -7 0 -12 -3 -12 -7 0 -5 -11 -13
-25 -20 -14 -6 -25 -9 -25 -7 0 12 51 54 59 49 5 -3 60 44 122 105 62 60 116
110 121 110 4 0 8 -6 8 -13z m160 -32 c-7 -9 -15 -13 -17 -11 -7 7 7 26 19 26
6 0 6 -6 -2 -15z m-4220 -16 c0 -6 -4 -7 -10 -4 -5 3 -10 11 -10 16 0 6 5 7
10 4 6 -3 10 -11 10 -16z m4230 -13 c0 -2 -7 -7 -16 -10 -8 -3 -12 -2 -9 4 6
10 25 14 25 6z m-4160 -31 c7 -9 8 -15 2 -15 -5 0 -12 7 -16 15 -3 8 -4 15 -2
15 2 0 9 -7 16 -15z m-51 -39 c9 -10 7 -17 -6 -27 -15 -12 -16 -12 -10 4 3 9
2 17 -3 17 -6 0 -10 5 -10 10 0 14 16 12 29 -4z m1336 -16 c3 -5 1 -10 -4 -10
-6 0 -11 5 -11 10 0 6 2 10 4 10 3 0 8 -4 11 -10z m-1291 -26 c4 -10 1 -14 -6
-12 -15 5 -23 28 -10 28 5 0 13 -7 16 -16z m3869 -8 c-10 -13 -20 -22 -22 -20
-4 4 29 44 36 44 2 0 -4 -11 -14 -24z m-111 -8 c-7 -7 -12 -8 -12 -2 0 14 12
26 19 19 2 -3 -1 -11 -7 -17z m-3722 -18 c0 -5 -4 -10 -10 -10 -5 0 -10 5 -10
10 0 6 5 10 10 10 6 0 10 -4 10 -10z m3890 -13 c0 -2 -10 -12 -22 -23 l-23
-19 19 23 c18 21 26 27 26 19z m130 -11 c0 -2 -8 -10 -17 -17 -16 -13 -17 -12
-4 4 13 16 21 21 21 13z m-260 -40 c0 -2 -8 -10 -17 -17 -16 -13 -17 -12 -4 4
13 16 21 21 21 13z m220 1 c0 -2 -12 -14 -27 -28 l-28 -24 24 28 c23 25 31 32
31 24z m-3252 -42 c12 -14 17 -25 11 -25 -7 0 -18 8 -25 18 -13 16 -14 16 -8
-2 5 -14 3 -17 -12 -14 -11 2 -20 13 -22 26 -5 31 28 29 56 -3z m2972 2 c0 -2
-15 -16 -32 -33 l-33 -29 29 33 c28 30 36 37 36 29z m0 -37 c-17 -22 -37 -43
-43 -47 -11 -6 4 15 47 65 33 37 30 25 -4 -18z m-60 6 c0 -2 -8 -10 -17 -17
-16 -13 -17 -12 -4 4 13 16 21 21 21 13z m92 -43 c-17 -21 -45 -51 -64 -68
l-33 -30 25 30 c34 42 93 105 98 105 2 0 -10 -17 -26 -37z m-188 13 c-3 -8
-13 -17 -22 -21 -13 -5 -13 -2 3 15 21 24 26 25 19 6z m326 -20 c0 -2 -8 -10
-17 -17 -16 -13 -17 -12 -4 4 13 16 21 21 21 13z m-4015 -26 c3 -5 1 -10 -4
-10 -6 0 -11 5 -11 10 0 6 2 10 4 10 3 0 8 -4 11 -10z m-15 -30 c0 -5 -2 -10
-4 -10 -3 0 -8 5 -11 10 -3 6 -1 10 4 10 6 0 11 -4 11 -10z m75 -8 c-3 -3 -11
0 -18 7 -9 10 -8 11 6 5 10 -3 15 -9 12 -12z m3655 -58 c-75 -76 -195 -180
-152 -133 12 14 20 28 17 31 -3 2 5 13 17 24 l23 19 -19 -22 c-11 -13 -15 -23
-11 -23 5 0 48 41 96 90 48 50 91 90 95 90 5 0 -25 -34 -66 -76z m140 73 c0
-2 -12 -14 -27 -28 l-28 -24 24 28 c23 25 31 32 31 24z m65 -47 c-3 -5 -12
-10 -18 -10 -7 0 -6 4 3 10 19 12 23 12 15 0z m-2529 -12 c5 -7 2 -9 -9 -5
-10 4 -18 -1 -22 -14 -7 -20 -17 -24 -29 -12 -4 4 3 15 16 25 27 21 34 22 44
6z m2494 -18 c0 -5 -5 -10 -11 -10 -5 0 -7 5 -4 10 3 6 8 10 11 10 2 0 4 -4 4
-10z m-175 -170 c-82 -83 -159 -156 -170 -161 -11 -6 54 61 145 149 91 89 167
161 170 161 3 1 -62 -67 -145 -149z m-92 8 c-86 -95 -113 -121 -113 -111 0 7
28 40 62 73 60 59 91 82 51 38z m-3836 -10 c-3 -8 -6 -5 -6 6 -1 11 2 17 5 13
3 -3 4 -12 1 -19z m808 -68 c-3 -5 -10 -10 -16 -10 -5 0 -9 5 -9 10 0 6 7 10
16 10 8 0 12 -4 9 -10z m-720 -50 c-3 -5 -12 -10 -18 -10 -7 0 -6 4 3 10 19
12 23 12 15 0z m1560 -10 c10 -16 -14 -50 -36 -50 -11 0 -17 4 -14 10 3 6 -1
7 -9 4 -21 -8 -20 5 1 28 17 19 48 24 58 8z"/>
<path d="M3907 2513 c-4 -3 -7 -13 -7 -22 1 -13 3 -13 11 2 11 19 8 33 -4 20z"/>
<path d="M3340 2260 c0 -5 4 -10 9 -10 6 0 13 5 16 10 3 6 -1 10 -9 10 -9 0
-16 -4 -16 -10z"/>
<path d="M3480 2246 c0 -2 7 -7 16 -10 8 -3 12 -2 9 4 -6 10 -25 14 -25 6z"/>
<path d="M3198 4643 c7 -3 16 -2 19 1 4 3 -2 6 -13 5 -11 0 -14 -3 -6 -6z"/>
<path d="M2870 4600 c-6 -11 -7 -20 -2 -20 10 0 32 21 32 32 0 16 -19 8 -30
-12z"/>
<path d="M3340 4600 c0 -5 7 -7 15 -4 8 4 15 8 15 10 0 2 -7 4 -15 4 -8 0 -15
-4 -15 -10z"/>
<path d="M3325 4560 c-8 -13 15 -24 27 -12 6 6 4 11 -6 15 -8 3 -18 2 -21 -3z"/>
<path d="M2746 4541 c-17 -19 -17 -19 3 -14 11 3 26 11 32 19 19 23 -15 18
-35 -5z"/>
<path d="M2620 4459 c-23 -9 -100 -79 -87 -79 15 0 64 27 87 47 14 13 28 23
32 23 5 0 8 5 8 10 0 12 -7 12 -40 -1z"/>
<path d="M3708 4453 c7 -3 16 -2 19 1 4 3 -2 6 -13 5 -11 0 -14 -3 -6 -6z"/>
<path d="M2385 4430 c-3 -5 -1 -10 4 -10 6 0 11 5 11 10 0 6 -2 10 -4 10 -3 0
-8 -4 -11 -10z"/>
<path d="M3395 4380 c4 -6 11 -8 16 -5 14 9 11 15 -7 15 -8 0 -12 -5 -9 -10z"/>
<path d="M3498 4383 c6 -2 18 -2 25 0 6 3 1 5 -13 5 -14 0 -19 -2 -12 -5z"/>
<path d="M4086 4365 c4 -8 10 -15 15 -15 5 0 9 7 9 15 0 8 -7 15 -15 15 -9 0
-12 -6 -9 -15z"/>
<path d="M3668 4363 c7 -3 16 -2 19 1 4 3 -2 6 -13 5 -11 0 -14 -3 -6 -6z"/>
<path d="M2225 4271 c-3 -6 -3 -20 0 -33 4 -17 -2 -32 -22 -53 -70 -75 -71
-79 -7 -40 58 36 62 41 61 74 -1 37 -21 69 -32 52z"/>
<path d="M4320 4241 c0 -6 5 -13 10 -16 6 -3 10 1 10 9 0 9 -4 16 -10 16 -5 0
-10 -4 -10 -9z"/>
<path d="M3737 4182 c-9 -2 -15 -7 -12 -12 3 -5 12 -7 20 -4 19 8 32 -23 16
-39 -17 -17 -13 -29 9 -22 16 5 19 3 13 -11 -5 -13 -2 -15 15 -9 19 5 22 2 22
-20 0 -24 3 -26 25 -21 14 4 25 2 25 -3 0 -6 14 -8 30 -6 21 2 30 -1 30 -11 0
-8 -4 -14 -10 -14 -5 0 -7 -7 -4 -15 4 -8 10 -12 15 -9 5 3 9 0 9 -7 0 -6 8
-9 20 -6 11 3 20 2 20 -3 0 -12 -29 -20 -35 -10 -11 18 -23 10 -27 -18 -4 -26
-1 -29 24 -29 21 0 27 4 24 14 -3 8 -1 11 4 8 11 -7 14 -55 4 -55 -4 0 -12 7
-18 16 -9 12 -17 13 -38 5 -22 -8 -26 -15 -24 -43 2 -18 9 -44 17 -58 8 -14
15 -27 16 -29 1 -2 14 4 27 13 26 17 40 9 30 -18 -4 -9 -1 -16 6 -16 12 0 23
27 18 45 -6 20 57 21 95 1 34 -18 42 -31 38 -63 -2 -16 15 -17 24 -3 4 6 29
22 56 35 77 40 64 50 -38 29 -20 -4 -31 13 -20 30 1 2 -6 13 -16 24 -21 23
-14 50 8 32 10 -8 14 -7 18 2 4 11 7 10 15 0 8 -11 10 -11 14 0 4 8 24 14 53
16 26 1 54 7 61 13 11 9 14 8 14 -4 0 -8 12 -20 28 -25 15 -6 21 -11 14 -11
-7 -1 -22 -10 -34 -21 -12 -11 -28 -20 -35 -20 -7 0 -13 -4 -13 -9 0 -10 119
42 160 69 20 14 21 18 9 38 -8 12 -19 22 -25 22 -16 0 -47 37 -49 59 -2 31
-25 53 -41 40 -8 -6 -21 -8 -31 -4 -10 5 -24 7 -31 6 -8 -1 -33 6 -55 17 -23
11 -60 25 -82 32 -22 7 -49 20 -60 30 -28 23 -108 46 -113 31 -4 -13 -29 -15
-36 -2 -3 5 2 8 11 7 9 0 17 4 19 9 4 10 -190 16 -229 7z m263 -84 c0 -10 -20
-11 -21 0 0 4 -2 16 -4 27 -4 20 -4 20 11 1 8 -11 14 -23 14 -28z m-20 -19 c0
-5 -4 -9 -10 -9 -5 0 -10 7 -10 16 0 8 5 12 10 9 6 -3 10 -10 10 -16z m40 -30
c0 -6 -4 -7 -10 -4 -5 3 -10 11 -10 16 0 6 5 7 10 4 6 -3 10 -11 10 -16z m-52
-17 c2 -7 -3 -12 -12 -12 -9 0 -16 7 -16 16 0 17 22 14 28 -4z m240 -117 c-3
-3 -9 2 -12 12 -6 14 -5 15 5 6 7 -7 10 -15 7 -18z m-174 0 c-4 -8 -11 -15
-16 -15 -6 0 -5 6 2 15 7 8 14 15 16 15 2 0 1 -7 -2 -15z m31 -75 c3 -5 1 -10
-4 -10 -6 0 -11 5 -11 10 0 6 2 10 4 10 3 0 8 -4 11 -10z"/>
<path d="M3092 4148 c-6 -6 -12 -18 -12 -25 0 -7 -3 -13 -7 -13 -5 0 -16 -13
-27 -28 -12 -18 -4 -13 24 14 23 23 41 47 39 53 -3 9 -8 8 -17 -1z"/>
<path d="M3520 4145 c0 -28 84 -135 96 -122 4 4 -1 16 -11 28 -15 16 -16 22
-6 28 9 6 10 11 2 15 -6 4 -11 12 -11 17 0 6 6 7 13 3 9 -6 9 -4 -1 8 -7 9
-21 14 -31 11 -10 -3 -22 0 -25 6 -7 11 -26 15 -26 6z"/>
<path d="M3625 4120 c3 -5 11 -10 16 -10 6 0 7 5 4 10 -3 6 -11 10 -16 10 -6
0 -7 -4 -4 -10z"/>
<path d="M4206 4113 c-4 -9 -1 -20 6 -25 26 -16 35 -7 22 26 -8 21 -20 20 -28
-1z"/>
<path d="M3665 4090 c-4 -6 -15 -8 -26 -5 -26 9 -26 -26 1 -50 24 -22 38 -14
15 8 -16 17 -21 32 -6 23 5 -3 20 3 32 14 20 16 21 19 7 20 -9 0 -20 -5 -23
-10z"/>
<path d="M3435 4070 c-3 -5 -1 -10 4 -10 6 0 11 5 11 10 0 6 -2 10 -4 10 -3 0
-8 -4 -11 -10z"/>
<path d="M3760 4060 c0 -5 7 -10 15 -10 8 0 15 5 15 10 0 6 -7 10 -15 10 -8 0
-15 -4 -15 -10z"/>
<path d="M1820 4044 c0 -8 5 -12 10 -9 6 3 10 10 10 16 0 5 -4 9 -10 9 -5 0
-10 -7 -10 -16z"/>
<path d="M3000 4035 c-7 -9 -10 -18 -7 -21 3 -3 10 4 17 15 13 25 8 27 -10 6z"/>
<path d="M3520 4046 c0 -2 7 -7 16 -10 8 -3 12 -2 9 4 -6 10 -25 14 -25 6z"/>
<path d="M3783 4003 c9 -9 19 -14 23 -11 10 10 -6 28 -24 28 -15 0 -15 -1 1
-17z"/>
<path d="M3620 4006 c0 -3 4 -15 9 -28 5 -13 10 -27 11 -33 1 -5 6 -20 11 -33
5 -14 5 -21 0 -17 -5 3 -13 0 -17 -6 -3 -6 -1 -15 6 -19 8 -5 9 -13 4 -21 -6
-11 -5 -11 9 0 21 17 32 8 22 -16 -5 -10 -7 -21 -7 -25 1 -5 -2 -8 -8 -8 -14
0 -13 -33 2 -48 9 -9 9 -12 0 -12 -7 0 -12 5 -12 11 0 6 -10 9 -22 7 -19 -2
-22 -8 -20 -32 3 -26 1 -28 -22 -24 -31 6 -33 -5 -6 -55 27 -50 26 -56 -15
-73 -27 -11 -35 -20 -35 -39 0 -16 6 -25 16 -25 8 0 12 -5 9 -11 -4 -6 2 -13
14 -16 12 -3 21 -11 21 -18 0 -7 9 -15 21 -18 11 -3 23 -15 26 -26 3 -12 9
-21 13 -21 13 0 20 31 11 48 -5 10 -5 27 1 42 l10 25 14 -32 c10 -23 11 -45 5
-78 -6 -30 -5 -57 2 -74 l10 -28 31 38 c17 21 44 54 59 73 l28 35 -16 91 c-10
50 -15 100 -12 111 4 14 1 19 -11 17 -13 -2 -16 6 -17 45 0 31 -4 46 -11 43
-12 -5 -37 33 -34 50 3 16 -12 54 -21 54 -5 0 -9 9 -9 20 0 11 -4 20 -9 20 -7
0 -14 16 -26 60 -7 29 -18 50 -26 50 -5 0 -9 -2 -9 -4z m90 -276 c0 -5 -2 -10
-4 -10 -3 0 -8 5 -11 10 -3 6 -1 10 4 10 6 0 11 -4 11 -10z m-50 -30 c0 -5 -4
-10 -10 -10 -5 0 -10 -15 -10 -32 -1 -29 -2 -31 -11 -14 -8 13 -8 25 0 42 11
24 31 33 31 14z m33 -115 c3 -19 -1 -29 -16 -37 -17 -9 -19 -8 -13 8 5 11 9
26 11 34 5 20 4 20 9 20 2 0 6 -11 9 -25z m-47 -77 c1 -8 -2 -21 -6 -28 -5 -7
-9 0 -12 19 -3 18 0 30 5 28 6 -2 11 -10 13 -19z m72 2 c-11 -18 -28 -27 -28
-16 0 6 30 36 36 36 2 0 -1 -9 -8 -20z"/>
<path d="M3790 3969 c0 -5 5 -7 10 -4 6 3 10 8 10 11 0 2 -4 4 -10 4 -5 0 -10
-5 -10 -11z"/>
<path d="M1564 3962 c-6 -4 -8 -16 -4 -26 6 -18 7 -18 13 4 7 28 6 32 -9 22z"/>
<path d="M1737 3956 c-3 -8 -3 -17 0 -20 8 -7 43 12 43 24 0 15 -37 12 -43 -4z"/>
<path d="M3600 3940 c0 -23 15 -27 23 -6 3 8 -1 17 -9 20 -9 4 -14 -1 -14 -14z"/>
<path d="M1503 3933 c-13 -8 -23 -23 -23 -32 1 -14 2 -14 14 2 7 9 21 17 30
17 9 0 16 7 16 15 0 19 -9 18 -37 -2z"/>
<path d="M3122 3928 c-19 -19 -14 -30 8 -18 11 6 20 15 20 20 0 14 -14 12 -28
-2z"/>
<path d="M2025 3910 c-3 -5 -1 -10 4 -10 6 0 11 5 11 10 0 6 -2 10 -4 10 -3 0
-8 -4 -11 -10z"/>
<path d="M1836 3868 c-13 -18 -29 -51 -35 -72 -10 -39 -4 -126 9 -126 9 0 28
42 46 99 7 24 25 56 39 71 l26 27 -25 17 c-33 21 -31 21 -60 -16z"/>
<path d="M2142 3883 c-53 -26 -112 -111 -127 -183 -4 -19 -14 -48 -22 -65
l-16 -30 26 24 c14 13 29 36 32 52 9 38 88 125 152 166 29 18 53 38 53 43 0
16 -62 11 -98 -7z"/>
<path d="M1505 3870 c4 -6 11 -8 16 -5 14 9 11 15 -7 15 -8 0 -12 -5 -9 -10z"/>
<path d="M1610 3869 c0 -5 5 -7 10 -4 6 3 10 8 10 11 0 2 -4 4 -10 4 -5 0 -10
-5 -10 -11z"/>
<path d="M3330 3870 c0 -5 5 -10 11 -10 5 0 7 5 4 10 -3 6 -8 10 -11 10 -2 0
-4 -4 -4 -10z"/>
<path d="M3800 3826 c0 -9 5 -16 10 -16 6 0 10 4 10 9 0 6 -4 13 -10 16 -5 3
-10 -1 -10 -9z"/>
<path d="M1730 3820 c0 -5 5 -10 10 -10 6 0 10 5 10 10 0 6 -4 10 -10 10 -5 0
-10 -4 -10 -10z"/>
<path d="M3834 3803 c-4 -14 -14 -23 -25 -23 -12 0 -19 -7 -19 -20 0 -14 5
-18 17 -13 10 4 14 2 10 -4 -4 -6 0 -17 9 -24 9 -8 13 -21 10 -35 -4 -14 -1
-24 9 -28 8 -3 15 -18 15 -33 1 -25 2 -26 13 -12 7 10 12 43 12 78 -1 34 2 61
6 61 14 0 3 30 -16 43 -10 8 -15 18 -12 24 3 5 -1 10 -9 10 -8 0 -17 -11 -20
-24z"/>
<path d="M2740 3774 c-25 -7 -55 -13 -67 -13 -13 -1 -23 -5 -23 -11 0 -5 -9
-10 -19 -10 -11 0 -21 -5 -23 -12 -2 -6 -24 -11 -52 -11 -36 1 -46 -2 -42 -13
3 -7 1 -16 -4 -19 -10 -6 -7 -18 22 -82 10 -24 23 -43 28 -43 5 0 21 -18 37
-40 32 -45 57 -51 74 -18 12 22 12 22 19 3 6 -16 9 -13 15 18 8 41 23 57 36
36 19 -32 20 6 2 68 -22 72 -16 99 17 88 21 -7 86 47 76 64 -9 14 -37 12 -96
-5z"/>
<path d="M1444 3759 c-8 -14 21 -43 35 -35 6 4 11 16 11 27 0 21 -34 27 -46 8z"/>
<path d="M2187 3738 c-13 -18 -31 -44 -40 -58 -17 -27 -28 -103 -20 -144 5
-24 6 -24 29 -10 16 11 26 32 34 72 7 32 26 80 46 109 19 29 34 55 34 58 0 3
-13 5 -29 5 -22 0 -36 -9 -54 -32z"/>
<path d="M3125 3750 c3 -5 8 -10 11 -10 2 0 4 5 4 10 0 6 -5 10 -11 10 -5 0
-7 -4 -4 -10z"/>
<path d="M4040 3730 c0 -5 5 -10 11 -10 5 0 7 5 4 10 -3 6 -8 10 -11 10 -2 0
-4 -4 -4 -10z"/>
<path d="M3365 3710 c-16 -11 -25 -20 -19 -20 11 0 64 39 54 40 -3 0 -18 -9
-35 -20z"/>
<path d="M1575 3700 c-4 -6 -3 -16 3 -22 6 -6 12 -6 17 2 4 6 3 16 -3 22 -6 6
-12 6 -17 -2z"/>
<path d="M4071 3683 c-1 -13 -7 -23 -16 -23 -8 0 -15 -4 -15 -10 0 -5 -10 -12
-22 -15 -20 -5 -34 -24 -55 -72 -10 -25 34 -13 66 18 22 21 31 37 28 50 -3 10
-2 17 2 15 15 -10 27 10 20 34 -7 24 -7 24 -8 3z"/>
<path d="M1440 3670 c0 -22 8 -25 30 -10 13 9 13 11 0 20 -22 15 -30 12 -30
-10z"/>
<path d="M1671 3655 c-17 -20 -34 -47 -37 -62 -14 -55 40 -176 63 -140 4 6 9
58 10 115 1 57 5 107 8 113 15 24 -16 5 -44 -26z"/>
<path d="M1837 3649 c-19 -23 -45 -68 -58 -100 -12 -33 -26 -62 -30 -65 -5 -3
-9 -9 -9 -14 0 -18 30 2 49 33 11 18 34 41 51 52 18 11 34 32 37 48 3 15 9 27
14 27 13 0 10 22 -5 42 -12 16 -16 14 -49 -23z"/>
<path d="M1510 3639 c0 -5 5 -7 10 -4 6 3 10 8 10 11 0 2 -4 4 -10 4 -5 0 -10
-5 -10 -11z"/>
<path d="M2002 3583 c-32 -89 -32 -106 1 -117 38 -14 59 9 65 73 4 49 -14 101
-37 101 -5 0 -18 -26 -29 -57z"/>
<path d="M2973 3633 c-7 -3 -13 -12 -13 -21 0 -12 3 -13 12 -4 8 8 18 0 40
-35 16 -25 32 -42 36 -39 3 4 1 10 -6 15 -21 13 15 51 49 51 48 0 29 24 -22
27 -24 1 -53 4 -64 7 -11 2 -26 2 -32 -1z"/>
<path d="M1452 3609 c-12 -19 -11 -19 8 -9 11 6 20 15 20 20 0 17 -15 11 -28
-11z"/>
<path d="M3387 3610 c-3 -11 -2 -20 3 -20 12 0 21 28 11 35 -5 2 -11 -4 -14
-15z"/>
<path d="M3185 3610 c3 -5 10 -10 16 -10 5 0 9 5 9 10 0 6 -7 10 -16 10 -8 0
-12 -4 -9 -10z"/>
<path d="M1411 3594 c0 -11 3 -14 6 -6 3 7 2 16 -1 19 -3 4 -6 -2 -5 -13z"/>
<path d="M1570 3596 c0 -2 8 -10 18 -17 15 -13 16 -12 3 4 -13 16 -21 21 -21
13z"/>
<path d="M3450 3579 c0 -11 5 -17 10 -14 6 3 10 13 10 21 0 8 -4 14 -10 14 -5
0 -10 -9 -10 -21z"/>
<path d="M1540 3581 c0 -6 5 -13 10 -16 6 -3 10 1 10 9 0 9 -4 16 -10 16 -5 0
-10 -4 -10 -9z"/>
<path d="M2285 3580 c-3 -5 -1 -10 4 -10 6 0 11 5 11 10 0 6 -2 10 -4 10 -3 0
-8 -4 -11 -10z"/>
<path d="M2864 3538 c13 -24 40 -53 58 -65 18 -12 40 -28 48 -35 8 -7 31 -12
50 -10 23 3 38 -2 46 -13 7 -9 17 -14 23 -10 12 7 -87 104 -152 148 -22 15
-53 27 -69 27 l-29 0 25 -42z"/>
<path d="M1440 3556 c0 -2 7 -7 16 -10 8 -3 12 -2 9 4 -6 10 -25 14 -25 6z"/>
<path d="M3082 3548 c-20 -20 -14 -30 53 -103 36 -38 65 -73 65 -77 0 -16 20
-7 20 8 0 14 2 14 16 3 9 -7 20 -22 24 -34 8 -18 9 -18 9 -1 2 34 -59 143 -99
180 -42 37 -67 45 -88 24z"/>
<path d="M2476 3540 c-11 -3 -15 -9 -10 -13 10 -6 42 9 34 16 -3 3 -14 1 -24
-3z"/>
<path d="M4140 3535 c0 -8 2 -15 4 -15 2 0 6 7 10 15 3 8 1 15 -4 15 -6 0 -10
-7 -10 -15z"/>
<path d="M1505 3530 c3 -5 8 -10 11 -10 2 0 4 5 4 10 0 6 -5 10 -11 10 -5 0
-7 -4 -4 -10z"/>
<path d="M4100 3520 c0 -5 5 -10 11 -10 5 0 7 5 4 10 -3 6 -8 10 -11 10 -2 0
-4 -4 -4 -10z"/>
<path d="M3930 3499 c0 -5 5 -7 10 -4 6 3 10 8 10 11 0 2 -4 4 -10 4 -5 0 -10
-5 -10 -11z"/>
<path d="M2230 3490 c0 -5 5 -10 10 -10 6 0 10 5 10 10 0 6 -4 10 -10 10 -5 0
-10 -4 -10 -10z"/>
<path d="M3420 3489 c0 -5 5 -7 10 -4 6 3 10 8 10 11 0 2 -4 4 -10 4 -5 0 -10
-5 -10 -11z"/>
<path d="M2460 3483 c0 -4 5 -15 10 -23 8 -13 10 -13 10 2 0 9 -4 20 -10 23
-5 3 -10 3 -10 -2z"/>
<path d="M3285 3458 c3 -17 14 -43 24 -57 10 -14 36 -65 59 -114 23 -48 50
-90 59 -94 10 -4 20 -10 23 -14 3 -4 25 -10 49 -14 l44 -6 -17 26 c-10 15 -35
50 -57 78 -21 29 -39 58 -39 64 0 7 -25 39 -55 70 -30 32 -55 63 -55 69 0 10
-21 24 -36 24 -2 0 -2 -14 1 -32z"/>
<path d="M1580 3453 c1 -18 18 -35 24 -24 4 6 4 16 1 21 -7 12 -25 13 -25 3z"/>
<path d="M3400 3450 c0 -5 5 -10 11 -10 5 0 7 5 4 10 -3 6 -8 10 -11 10 -2 0
-4 -4 -4 -10z"/>
<path d="M3555 3450 c3 -5 8 -10 11 -10 2 0 4 5 4 10 0 6 -5 10 -11 10 -5 0
-7 -4 -4 -10z"/>
<path d="M2065 3440 c-3 -5 -3 -27 1 -47 l7 -38 13 39 c14 38 11 56 -6 56 -5
0 -12 -4 -15 -10z"/>
<path d="M3443 3443 c-15 -5 -17 -23 -4 -23 5 0 11 7 15 15 3 8 4 15 3 14 -1
0 -8 -3 -14 -6z"/>
<path d="M1791 3399 c-13 -38 -15 -87 -2 -73 8 9 24 104 17 104 -2 0 -9 -14
-15 -31z"/>
<path d="M2345 3420 c-3 -5 -1 -10 4 -10 6 0 11 5 11 10 0 6 -2 10 -4 10 -3 0
-8 -4 -11 -10z"/>
<path d="M2738 3413 c7 -3 16 -2 19 1 4 3 -2 6 -13 5 -11 0 -14 -3 -6 -6z"/>
<path d="M3614 3386 c-4 -10 -2 -22 4 -28 8 -8 13 -7 18 6 4 10 2 22 -4 28 -8
8 -13 7 -18 -6z"/>
<path d="M2606 3368 c-20 -28 -21 -44 -2 -29 10 8 15 9 18 1 2 -6 11 3 21 20
18 29 18 30 -2 30 -11 0 -27 -10 -35 -22z"/>
<path d="M2858 3362 c-10 -2 -18 -10 -18 -19 0 -12 3 -13 13 -4 9 7 24 8 48 1
41 -12 39 -12 39 -2 0 11 -60 29 -82 24z"/>
<path d="M1582 3328 c-14 -14 -16 -48 -2 -48 10 0 26 48 18 55 -2 3 -10 -1
-16 -7z"/>
<path d="M2403 3317 c-7 -15 -13 -38 -13 -50 0 -19 1 -20 16 -6 10 10 14 29
12 50 l-3 34 -12 -28z"/>
<path d="M2471 3307 c-9 -28 -9 -45 0 -76 7 -23 15 -41 19 -41 10 0 11 123 1
139 -6 10 -12 4 -20 -22z"/>
<path d="M2140 3310 c0 -5 5 -10 11 -10 5 0 7 5 4 10 -3 6 -8 10 -11 10 -2 0
-4 -4 -4 -10z"/>
<path d="M3536 3303 c-8 -24 0 -60 19 -89 8 -13 15 -28 15 -34 0 -6 4 -16 10
-23 57 -71 59 -72 77 -61 24 15 28 65 7 106 -20 40 -80 108 -88 101 -3 -3 -12
0 -20 6 -11 10 -15 8 -20 -6z"/>
<path d="M3480 3302 c0 -5 7 -15 15 -22 8 -7 15 -8 15 -2 0 5 -7 15 -15 22 -8
7 -15 8 -15 2z"/>
<path d="M2236 3292 c-2 -4 -1 -14 5 -22 7 -12 9 -10 9 8 0 23 -5 28 -14 14z"/>
<path d="M1620 3280 c0 -5 5 -10 11 -10 5 0 7 5 4 10 -3 6 -8 10 -11 10 -2 0
-4 -4 -4 -10z"/>
<path d="M1671 3264 c0 -11 3 -14 6 -6 3 7 2 16 -1 19 -3 4 -6 -2 -5 -13z"/>
<path d="M2910 3272 c0 -14 11 -21 26 -15 8 3 11 9 8 14 -7 11 -34 12 -34 1z"/>
<path d="M1593 3248 c-15 -19 -26 -71 -13 -63 5 3 10 17 10 31 0 14 4 22 10
19 6 -3 10 1 10 9 0 19 -4 20 -17 4z"/>
<path d="M1622 3220 c0 -19 2 -27 5 -17 2 9 2 25 0 35 -3 9 -5 1 -5 -18z"/>
<path d="M1731 3204 c-10 -38 -10 -49 1 -55 23 -15 28 -10 28 34 0 66 -15 77
-29 21z"/>
<path d="M2614 3233 c-13 -4 -7 -40 9 -61 9 -11 14 -9 29 10 19 25 24 53 8 43
-6 -4 -16 -2 -23 3 -7 5 -17 7 -23 5z"/>
<path d="M3690 3220 c0 -5 7 -10 15 -10 8 0 15 5 15 10 0 6 -7 10 -15 10 -8 0
-15 -4 -15 -10z"/>
<path d="M2971 3197 c-31 -34 -33 -76 -6 -121 32 -53 59 -70 85 -54 11 7 20
17 20 22 0 5 7 14 16 20 8 7 18 30 20 51 5 35 1 44 -26 73 -38 39 -77 42 -109
9z"/>
<path d="M2247 3204 c-9 -9 9 -51 38 -89 18 -23 31 -31 45 -28 24 6 24 11 4
64 -18 44 -66 74 -87 53z"/>
<path d="M1936 3191 c-4 -5 -2 -20 3 -33 9 -21 10 -21 10 10 1 32 -3 39 -13
23z"/>
<path d="M3290 3189 c-11 -8 -12 -12 -2 -16 6 -2 12 -14 12 -24 0 -11 5 -17
10 -14 12 7 14 65 3 65 -5 0 -15 -5 -23 -11z"/>
<path d="M3360 3191 c0 -5 5 -13 10 -16 6 -3 10 -2 10 4 0 5 -4 13 -10 16 -5
3 -10 2 -10 -4z"/>
<path d="M2744 3153 c-4 -21 -12 -42 -18 -46 -7 -6 -6 -7 4 -5 8 3 23 20 32
39 21 42 22 49 3 49 -8 0 -17 -15 -21 -37z"/>
<path d="M1646 3164 c-8 -21 -8 -59 0 -51 7 7 16 67 10 67 -2 0 -7 -7 -10 -16z"/>
<path d="M3214 3172 c6 -10 1 -11 -17 -6 -22 5 -25 3 -20 -15 5 -20 33 -30 33
-12 0 5 7 11 17 13 14 3 14 5 -2 18 -12 9 -16 10 -11 2z"/>
<path d="M1591 3156 c-9 -11 -9 -19 1 -35 7 -12 16 -21 19 -21 13 0 19 32 9
51 -13 23 -14 23 -29 5z"/>
<path d="M2395 3150 c3 -5 8 -10 11 -10 2 0 4 5 4 10 0 6 -5 10 -11 10 -5 0
-7 -4 -4 -10z"/>
<path d="M1118 3143 c7 -3 16 -2 19 1 4 3 -2 6 -13 5 -11 0 -14 -3 -6 -6z"/>
<path d="M2075 3140 c-4 -6 -3 -16 3 -22 13 -13 23 4 13 21 -7 10 -10 10 -16
1z"/>
<path d="M1032 3107 c-12 -13 -22 -32 -22 -43 0 -16 7 -19 42 -18 41 2 43 3
41 30 -5 60 -24 70 -61 31z"/>
<path d="M1305 3120 c-3 -6 1 -7 9 -4 18 7 21 14 7 14 -6 0 -13 -4 -16 -10z"/>
<path d="M3927 3111 c-4 -17 -3 -21 5 -13 5 5 8 16 6 23 -3 8 -7 3 -11 -10z"/>
<path d="M4011 3114 c0 -11 3 -14 6 -6 3 7 2 16 -1 19 -3 4 -6 -2 -5 -13z"/>
<path d="M1695 3111 c-3 -5 -1 -12 5 -16 5 -3 10 1 10 9 0 18 -6 21 -15 7z"/>
<path d="M2210 3111 c0 -6 5 -13 10 -16 6 -3 10 1 10 9 0 9 -4 16 -10 16 -5 0
-10 -4 -10 -9z"/>
<path d="M3200 3103 c0 -12 -5 -25 -10 -28 -6 -4 -8 -10 -6 -14 3 -4 6 -24 8
-44 1 -20 5 -34 8 -32 3 2 14 -24 25 -57 16 -49 20 -56 27 -39 15 41 12 140
-5 159 -9 9 -23 31 -31 47 -14 26 -16 27 -16 8z"/>
<path d="M3965 3100 c3 -5 8 -10 11 -10 2 0 4 5 4 10 0 6 -5 10 -11 10 -5 0
-7 -4 -4 -10z"/>
<path d="M2570 3090 c0 -5 5 -10 10 -10 6 0 10 5 10 10 0 6 -4 10 -10 10 -5 0
-10 -4 -10 -10z"/>
<path d="M3340 3085 c-11 -13 -10 -14 4 -9 9 3 16 10 16 15 0 13 -6 11 -20 -6z"/>
<path d="M2850 3080 c0 -5 5 -10 11 -10 5 0 7 5 4 10 -3 6 -8 10 -11 10 -2 0
-4 -4 -4 -10z"/>
<path d="M3984 3075 c-19 -15 -19 -16 1 -13 14 2 20 -3 20 -17 0 -23 25 -65
38 -65 5 0 6 8 2 18 -4 9 -8 26 -11 36 -2 11 -11 24 -19 29 -8 4 -13 12 -10
18 9 13 2 11 -21 -6z"/>
<path d="M1856 3065 c-3 -8 -1 -15 4 -15 6 0 10 7 10 15 0 8 -2 15 -4 15 -2 0
-6 -7 -10 -15z"/>
<path d="M2440 3070 c-8 -5 -12 -12 -9 -15 4 -3 12 1 19 10 14 17 11 19 -10 5z"/>
<path d="M2880 3071 c0 -17 18 -21 24 -6 3 9 0 15 -9 15 -8 0 -15 -4 -15 -9z"/>
<path d="M965 3060 c-3 -5 -2 -10 4 -10 5 0 13 5 16 10 3 6 2 10 -4 10 -5 0
-13 -4 -16 -10z"/>
<path d="M1669 3056 c6 -8 11 -18 10 -22 -1 -5 -1 -16 1 -24 1 -11 4 -9 9 5
11 27 2 55 -16 55 -12 0 -13 -3 -4 -14z"/>
<path d="M3295 3057 c-4 -10 -5 -21 -1 -24 10 -10 18 4 13 24 -4 17 -4 17 -12
0z"/>
<path d="M3437 3043 c-4 -3 -7 -11 -7 -17 0 -6 5 -5 12 2 6 6 9 14 7 17 -3 3
-9 2 -12 -2z"/>
<path d="M2760 3031 c0 -5 6 -14 14 -20 12 -11 10 -19 -14 -54 -16 -23 -26
-44 -23 -47 6 -7 43 39 43 54 0 6 9 19 20 29 26 22 25 33 -2 41 -31 8 -38 7
-38 -3z"/>
<path d="M3465 3020 c-3 -5 -1 -10 4 -10 6 0 11 5 11 10 0 6 -2 10 -4 10 -3 0
-8 -4 -11 -10z"/>
<path d="M3567 3023 c-40 -6 -60 -41 -46 -81 6 -18 17 -32 24 -32 8 0 18 -8
24 -17 24 -45 115 40 109 102 -3 28 -6 30 -43 31 -22 1 -52 -1 -68 -3z"/>
<path d="M3702 3021 c-8 -4 -12 -18 -10 -29 3 -19 5 -20 28 -9 30 15 39 47 13
47 -10 0 -24 -4 -31 -9z"/>
<path d="M580 3009 c0 -5 5 -7 10 -4 6 3 10 8 10 11 0 2 -4 4 -10 4 -5 0 -10
-5 -10 -11z"/>
<path d="M2150 3001 c0 -12 5 -21 10 -21 6 0 10 6 10 14 0 8 -4 18 -10 21 -5
3 -10 -3 -10 -14z"/>
<path d="M2645 3011 c-3 -5 -1 -12 5 -16 5 -3 10 1 10 9 0 18 -6 21 -15 7z"/>
<path d="M1889 2979 c-7 -14 -7 -25 -1 -31 6 -6 11 1 14 21 5 36 3 38 -13 10z"/>
<path d="M3476 2991 c-4 -7 -5 -15 -2 -18 9 -9 19 4 14 18 -4 11 -6 11 -12 0z"/>
<path d="M2573 2983 c-18 -7 -16 -23 2 -23 8 0 15 7 15 15 0 8 -1 15 -2 14 -2
0 -9 -3 -15 -6z"/>
<path d="M2900 2965 c0 -9 -4 -14 -9 -10 -5 3 -22 -6 -37 -20 -15 -14 -32 -25
-39 -25 -12 0 -28 -40 -20 -48 3 -3 12 1 21 8 12 11 17 11 23 1 5 -8 19 2 44
33 38 46 44 61 27 71 -5 3 -10 -1 -10 -10z"/>
<path d="M2480 2939 c0 -10 23 -17 38 -12 22 8 13 23 -13 21 -14 -1 -25 -5
-25 -9z"/>
<path d="M3430 2940 c0 -5 -6 -10 -14 -10 -8 0 -17 -7 -20 -16 -9 -25 -7 -27
10 -10 8 9 19 14 24 11 4 -3 10 4 13 15 3 11 1 20 -4 20 -5 0 -9 -4 -9 -10z"/>
<path d="M3458 2925 c-4 -20 -2 -23 8 -14 7 6 10 17 7 25 -7 20 -10 18 -15
-11z"/>
<path d="M270 2928 c0 -8 7 -23 15 -34 15 -18 15 -18 13 10 -3 29 -28 50 -28
24z"/>
<path d="M412 2928 c6 -18 25 -20 31 -3 5 10 0 15 -14 15 -12 0 -19 -5 -17
-12z"/>
<path d="M1675 2929 c-4 -6 -5 -12 -2 -15 2 -3 7 2 10 11 7 17 1 20 -8 4z"/>
<path d="M2377 2913 c-5 -26 -2 -42 7 -32 9 11 15 59 7 59 -5 0 -11 -12 -14
-27z"/>
<path d="M1871 2914 c0 -11 3 -14 6 -6 3 7 2 16 -1 19 -3 4 -6 -2 -5 -13z"/>
<path d="M1170 2901 c-12 -23 3 -37 17 -18 22 27 24 37 9 37 -8 0 -20 -9 -26
-19z"/>
<path d="M1940 2890 c0 -16 5 -30 10 -30 6 0 10 14 10 30 0 17 -4 30 -10 30
-5 0 -10 -13 -10 -30z"/>
<path d="M2134 2886 c3 -22 10 -44 16 -50 17 -17 12 48 -6 70 -14 18 -15 17
-10 -20z"/>
<path d="M2433 2893 c-3 -10 -8 -21 -10 -25 -1 -3 5 -4 16 -1 13 3 17 11 14
24 -7 24 -12 24 -20 2z"/>
<path d="M340 2881 c-7 -13 -16 -18 -32 -14 -14 4 -20 2 -15 -3 5 -5 14 -9 20
-9 7 0 11 -8 9 -18 -2 -14 5 -17 47 -17 63 0 80 7 92 38 7 18 6 28 -3 34 -20
12 -28 10 -28 -8 0 -11 -6 -14 -22 -8 -13 3 -24 11 -26 15 -6 16 -31 10 -42
-10z"/>
<path d="M1647 2893 c-14 -13 -6 -50 13 -68 11 -10 20 -24 20 -32 0 -16 8 -17
23 0 13 13 17 107 5 107 -5 0 -8 -7 -8 -15 0 -19 -9 -19 -30 0 -9 8 -20 12
-23 8z"/>
<path d="M3050 2878 c0 -7 -3 -23 -6 -35 -4 -14 -2 -23 5 -23 14 0 30 40 24
58 -3 6 -9 12 -14 12 -5 0 -9 -6 -9 -12z"/>
<path d="M3476 2851 c-9 -9 -16 -24 -16 -32 0 -8 -5 -20 -12 -27 -6 -6 -9 -14
-6 -17 10 -10 68 46 68 65 0 27 -15 32 -34 11z"/>
<path d="M990 2850 c0 -5 5 -10 10 -10 6 0 10 5 10 10 0 6 -4 10 -10 10 -5 0
-10 -4 -10 -10z"/>
<path d="M1740 2840 c-15 -28 -6 -37 16 -16 12 12 14 20 6 28 -7 7 -14 3 -22
-12z"/>
<path d="M2577 2853 c-9 -2 -15 -8 -12 -13 6 -10 45 -1 45 11 0 9 -4 10 -33 2z"/>
<path d="M2368 2844 c-3 -5 -11 -25 -17 -45 -6 -20 -20 -44 -31 -54 -19 -18
-19 -54 0 -100 18 -42 18 -62 1 -61 -9 1 -17 -8 -19 -21 -3 -17 2 -21 18 -20
20 1 24 10 32 62 2 11 10 19 19 18 15 -3 21 32 22 137 1 52 -14 103 -25 84z"/>
<path d="M3306 2828 c-18 -25 -16 -31 8 -22 9 3 16 15 16 25 0 25 -5 24 -24
-3z"/>
<path d="M2846 2824 c-3 -8 -9 -13 -14 -10 -4 2 -9 -4 -9 -15 -2 -22 15 -25
42 -5 11 8 16 19 12 30 -8 20 -23 21 -31 0z"/>
<path d="M3720 2829 c0 -5 5 -7 10 -4 6 3 10 8 10 11 0 2 -4 4 -10 4 -5 0 -10
-5 -10 -11z"/>
<path d="M1900 2805 c0 -14 5 -25 10 -25 6 0 10 11 10 25 0 14 -4 25 -10 25
-5 0 -10 -11 -10 -25z"/>
<path d="M2670 2821 c0 -5 7 -11 15 -15 9 -3 15 0 15 9 0 8 -7 15 -15 15 -8 0
-15 -4 -15 -9z"/>
<path d="M3225 2806 c-11 -12 -18 -31 -16 -41 3 -16 1 -17 -12 -7 -13 11 -18
8 -31 -19 -21 -43 -20 -47 5 -21 11 12 24 20 29 17 10 -6 53 71 48 85 -2 5
-12 -1 -23 -14z"/>
<path d="M3392 2810 c-7 -11 -8 -20 -3 -20 9 0 24 30 18 36 -1 2 -8 -6 -15
-16z"/>
<path d="M80 2806 c0 -8 5 -18 10 -21 6 -3 10 1 10 9 0 8 -4 18 -10 21 -5 3
-10 -1 -10 -9z"/>
<path d="M1800 2800 c-6 -11 -7 -20 -2 -20 6 0 12 9 15 20 3 11 3 20 1 20 -2
0 -8 -9 -14 -20z"/>
<path d="M2010 2804 c0 -8 5 -12 10 -9 6 4 8 11 5 16 -9 14 -15 11 -15 -7z"/>
<path d="M1946 2792 c-9 -27 0 -88 14 -97 11 -7 12 57 1 95 l-7 25 -8 -23z"/>
<path d="M2090 2796 c0 -9 5 -16 10 -16 6 0 10 4 10 9 0 6 -4 13 -10 16 -5 3
-10 -1 -10 -9z"/>
<path d="M3647 2804 c-10 -11 3 -24 23 -24 13 0 17 5 14 15 -6 15 -26 20 -37
9z"/>
<path d="M1756 2785 c4 -8 10 -15 15 -15 4 0 6 7 3 15 -4 8 -10 15 -15 15 -4
0 -6 -7 -3 -15z"/>
<path d="M3789 2793 c0 -5 -2 -27 -5 -50 -4 -29 -2 -43 6 -43 6 0 10 6 9 13
-3 18 12 48 21 42 15 -9 22 15 10 30 -13 16 -40 20 -41 8z"/>
<path d="M3022 2767 c-22 -23 -30 -67 -13 -67 11 0 44 67 39 81 -2 6 -13 0
-26 -14z"/>
<path d="M3308 2763 c-6 -15 -10 -36 -9 -45 1 -10 -2 -18 -7 -18 -8 0 -15 -19
-28 -82 -3 -12 1 -15 10 -12 8 3 12 12 9 20 -3 8 -2 14 3 13 21 -3 34 2 34 14
0 6 7 24 14 40 8 15 11 27 6 27 -14 0 -21 32 -10 45 8 9 8 15 0 20 -5 3 -15
-6 -22 -22z"/>
<path d="M3060 2771 c1 -17 20 -33 34 -28 24 9 19 24 -9 29 -14 3 -25 2 -25
-1z"/>
<path d="M3350 2766 c0 -9 5 -16 10 -16 6 0 10 4 10 9 0 6 -4 13 -10 16 -5 3
-10 -1 -10 -9z"/>
<path d="M3403 2761 c0 -11 5 -18 9 -15 4 3 5 11 1 19 -7 21 -12 19 -10 -4z"/>
<path d="M3710 2770 c0 -5 -7 -7 -15 -4 -17 7 -19 -4 -6 -24 6 -10 12 -7 25
12 9 14 12 26 6 26 -5 0 -10 -4 -10 -10z"/>
<path d="M797 2763 c-4 -3 -7 -11 -7 -17 0 -6 5 -5 12 2 6 6 9 14 7 17 -3 3
-9 2 -12 -2z"/>
<path d="M2493 2763 c-15 -5 -17 -23 -4 -23 5 0 11 7 15 15 3 8 4 15 3 14 -1
0 -8 -3 -14 -6z"/>
<path d="M2540 2755 c-10 -12 -10 -15 4 -15 9 0 16 7 16 15 0 8 -2 15 -4 15
-2 0 -9 -7 -16 -15z"/>
<path d="M3639 2770 c-5 -29 -4 -50 3 -50 15 0 21 31 9 43 -6 6 -11 9 -12 7z"/>
<path d="M1780 2750 c0 -5 5 -10 10 -10 6 0 10 5 10 10 0 6 -4 10 -10 10 -5 0
-10 -4 -10 -10z"/>
<path d="M3425 2740 c-3 -5 -1 -10 4 -10 6 0 11 5 11 10 0 6 -2 10 -4 10 -3 0
-8 -4 -11 -10z"/>
<path d="M3538 2734 c-2 -9 -1 -39 0 -65 3 -42 6 -47 18 -34 16 16 19 51 4 60
-6 4 -8 15 -5 25 3 10 1 21 -4 24 -5 4 -11 -1 -13 -10z"/>
<path d="M2691 2714 c-15 -34 -9 -40 14 -14 12 14 15 24 8 31 -6 6 -14 1 -22
-17z"/>
<path d="M3448 2718 c-34 -12 -35 -27 -3 -51 25 -18 25 -18 26 5 0 13 2 31 4
41 2 9 3 17 2 16 -1 0 -14 -5 -29 -11z"/>
<path d="M3755 2719 c-4 -6 -5 -12 -2 -15 2 -3 7 2 10 11 7 17 1 20 -8 4z"/>
<path d="M1036 2711 c-4 -7 -5 -15 -2 -18 9 -9 19 4 14 18 -4 11 -6 11 -12 0z"/>
<path d="M2220 2705 c-10 -12 -10 -18 0 -30 18 -22 30 -18 30 9 0 31 -14 40
-30 21z"/>
<path d="M2829 2698 c-6 -13 -23 -33 -38 -45 -23 -19 -24 -22 -8 -28 9 -4 17
-16 17 -26 0 -10 4 -19 9 -19 14 0 20 27 9 38 -14 14 11 69 34 75 22 6 24 27
3 27 -8 0 -20 -10 -26 -22z"/>
<path d="M2906 2704 c-3 -8 2 -30 11 -47 16 -31 16 -32 26 -9 6 12 13 22 18
22 4 0 2 11 -4 25 -13 28 -42 33 -51 9z"/>
<path d="M3195 2710 c-3 -5 -1 -10 4 -10 6 0 11 5 11 10 0 6 -2 10 -4 10 -3 0
-8 -4 -11 -10z"/>
<path d="M3390 2709 c0 -5 5 -7 10 -4 6 3 10 8 10 11 0 2 -4 4 -10 4 -5 0 -10
-5 -10 -11z"/>
<path d="M3836 2712 c-12 -11 -5 -32 10 -32 10 0 14 -6 10 -15 -3 -8 -1 -15 3
-15 10 0 21 24 21 45 0 13 -35 27 -44 17z"/>
<path d="M1678 2703 c7 -3 16 -2 19 1 4 3 -2 6 -13 5 -11 0 -14 -3 -6 -6z"/>
<path d="M3624 2699 c-16 -20 -24 -81 -10 -76 6 2 11 10 11 18 0 8 4 17 8 20
5 4 7 17 5 29 -2 19 -5 21 -14 9z"/>
<path d="M3701 2703 c0 -4 4 -17 9 -28 8 -19 9 -19 9 2 1 12 -3 25 -9 28 -5 3
-10 3 -9 -2z"/>
<path d="M2151 2684 c0 -11 3 -14 6 -6 3 7 2 16 -1 19 -3 4 -6 -2 -5 -13z"/>
<path d="M3764 2689 c-2 -4 0 -10 6 -14 10 -6 -1 -32 -27 -65 -9 -12 -8 -19 3
-34 14 -19 14 -19 14 2 0 12 5 22 10 22 6 0 10 -4 10 -10 0 -5 3 -10 8 -10 4
0 8 17 8 38 1 20 5 46 8 57 6 17 3 21 -14 21 -12 0 -23 -4 -26 -7z"/>
<path d="M3374 2658 c-15 -24 -15 -76 0 -81 11 -4 14 5 13 44 -1 53 -2 55 -13
37z"/>
<path d="M930 2640 c0 -5 5 -10 10 -10 6 0 10 5 10 10 0 6 -4 10 -10 10 -5 0
-10 -4 -10 -10z"/>
<path d="M2085 2640 c-8 -14 3 -30 21 -30 16 0 16 2 8 24 -7 18 -20 21 -29 6z"/>
<path d="M2713 2635 c-13 -15 -17 -47 -8 -57 4 -3 17 -1 30 6 28 13 34 50 9
60 -19 7 -16 8 -31 -9z"/>
<path d="M2560 2620 c-21 -21 -25 -36 -12 -44 5 -3 16 10 25 29 19 40 16 44
-13 15z"/>
<path d="M3492 2632 l-23 -4 22 -19 c34 -29 47 -25 31 11 -4 9 -17 14 -30 12z"/>
<path d="M3204 2619 c-2 -4 -3 -18 -3 -30 1 -13 -2 -33 -6 -44 -13 -31 0 -15
29 37 25 45 25 47 5 45 -11 -1 -22 -4 -25 -8z"/>
<path d="M3697 2615 c-4 -8 -3 -16 1 -19 4 -3 9 4 9 15 2 23 -3 25 -10 4z"/>
<path d="M2230 2598 c0 -15 5 -30 10 -33 13 -8 13 25 0 45 -8 12 -10 9 -10
-12z"/>
<path d="M2420 2607 c0 -23 -25 -67 -38 -67 -7 0 -11 -4 -8 -9 4 -5 0 -12 -6
-14 -9 -4 -8 -6 3 -6 28 -2 81 70 72 97 -6 16 -23 16 -23 -1z"/>
<path d="M2675 2598 c-3 -7 -7 -28 -9 -46 -3 -26 -1 -30 10 -21 8 6 13 26 11
45 -2 37 -5 41 -12 22z"/>
<path d="M2927 2603 c-10 -9 -9 -43 1 -43 12 0 32 23 32 37 0 14 -22 18 -33 6z"/>
<path d="M3115 2591 c-10 -17 12 -21 25 -6 10 12 10 15 -3 15 -9 0 -18 -4 -22
-9z"/>
<path d="M3657 2587 c-3 -8 -1 -20 4 -28 8 -12 10 -12 19 1 5 8 8 19 7 24 -5
16 -24 18 -30 3z"/>
<path d="M3830 2586 c0 -9 5 -16 10 -16 6 0 10 4 10 9 0 6 -4 13 -10 16 -5 3
-10 -1 -10 -9z"/>
<path d="M2603 2555 c2 -34 20 -38 31 -7 3 9 8 22 11 28 4 7 -4 12 -19 12 -21
0 -24 -5 -23 -33z"/>
<path d="M3612 2565 c0 -16 2 -22 5 -12 2 9 2 23 0 30 -3 6 -5 -1 -5 -18z"/>
<path d="M848 2565 c-19 -11 -29 -26 -34 -51 -3 -19 -4 -38 0 -41 10 -10 36
19 44 51 5 17 19 36 33 43 21 11 22 13 4 12 -11 0 -32 -6 -47 -14z"/>
<path d="M3725 2569 c-4 -6 -5 -12 -2 -15 2 -3 7 2 10 11 7 17 1 20 -8 4z"/>
<path d="M3255 2559 c-11 -17 1 -21 15 -4 8 9 8 15 2 15 -6 0 -14 -5 -17 -11z"/>
<path d="M3305 2522 c-11 -20 -21 -40 -23 -43 -1 -4 6 -9 17 -12 14 -3 18 -1
14 9 -3 8 0 28 7 45 18 44 7 45 -15 1z"/>
<path d="M3490 2551 c0 -5 5 -13 10 -16 6 -3 10 -2 10 4 0 5 -4 13 -10 16 -5
3 -10 2 -10 -4z"/>
<path d="M2467 2524 c-13 -18 -14 -22 -3 -18 8 3 17 13 20 21 10 25 3 23 -17
-3z"/>
<path d="M2900 2540 c0 -5 7 -10 16 -10 8 0 12 5 9 10 -3 6 -10 10 -16 10 -5
0 -9 -4 -9 -10z"/>
<path d="M3123 2543 c-12 -2 -24 -11 -27 -20 -9 -23 4 -31 15 -10 6 9 17 17
24 17 8 0 15 5 15 10 0 6 -1 9 -2 9 -2 -1 -13 -4 -25 -6z"/>
<path d="M3696 2507 c2 -72 2 -72 22 -54 9 9 25 29 35 46 16 27 16 31 2 31 -8
0 -20 -12 -25 -26 -6 -14 -14 -22 -20 -19 -7 4 -7 12 0 24 5 10 6 21 3 25 -13
13 -18 5 -17 -27z"/>
<path d="M3570 2506 c0 -22 3 -27 11 -19 8 8 8 16 0 30 -9 16 -10 14 -11 -11z"/>
<path d="M3627 2523 c-9 -15 17 -23 34 -11 11 8 11 9 -3 5 -9 -3 -18 -1 -21 6
-2 8 -5 8 -10 0z"/>
<path d="M2803 2503 c-3 -8 -3 -16 0 -20 10 -9 37 5 37 20 0 18 -30 18 -37 0z"/>
<path d="M3190 2506 c0 -9 5 -16 10 -16 6 0 10 4 10 9 0 6 -4 13 -10 16 -5 3
-10 -1 -10 -9z"/>
<path d="M2684 2495 c-5 -12 -9 -13 -20 -4 -20 17 -27 6 -28 -43 -1 -44 -20
-66 -22 -25 -1 12 -2 33 -3 47 l-2 25 -11 -22 c-6 -13 -14 -23 -18 -23 -17 0
5 -53 27 -67 30 -20 43 -9 50 44 3 22 10 40 17 40 32 -1 47 4 41 13 -4 6 -11
7 -17 4 -7 -5 -9 -1 -5 9 3 10 4 17 1 17 -2 0 -7 -7 -10 -15z"/>
<path d="M2461 2486 c-10 -12 -6 -26 10 -26 11 0 19 29 10 35 -5 2 -14 -1 -20
-9z"/>
<path d="M2508 2475 c-23 -30 -22 -32 3 -38 15 -4 23 1 30 20 17 45 -5 57 -33
18z"/>
<path d="M2990 2491 c0 -5 7 -12 16 -15 22 -9 24 -8 24 9 0 8 -9 15 -20 15
-11 0 -20 -4 -20 -9z"/>
<path d="M2846 2482 c-3 -6 -1 -14 5 -17 15 -10 25 3 12 16 -7 7 -13 7 -17 1z"/>
<path d="M2916 2478 c3 -4 14 -8 24 -8 10 0 21 4 24 8 3 5 -8 8 -24 8 -16 0
-27 -3 -24 -8z"/>
<path d="M1966 2471 c14 -13 84 -23 84 -13 0 13 -25 22 -63 22 -18 0 -27 -4
-21 -9z"/>
<path d="M3107 2473 c-7 -11 10 -40 18 -31 4 4 3 14 -3 24 -5 9 -12 12 -15 7z"/>
<path d="M3345 2460 c-3 -5 -1 -10 4 -10 6 0 11 5 11 10 0 6 -2 10 -4 10 -3 0
-8 -4 -11 -10z"/>
<path d="M3542 2448 c-15 -15 -16 -72 -1 -63 6 4 8 13 5 20 -2 7 2 22 10 34
16 22 6 29 -14 9z"/>
<path d="M1195 2441 c-3 -6 -2 -11 4 -11 6 0 8 -7 5 -15 -4 -8 -1 -15 5 -15 6
0 11 -6 11 -14 0 -8 4 -17 9 -20 12 -8 1 45 -14 67 -8 12 -15 15 -20 8z"/>
<path d="M2766 2427 c5 -22 3 -26 -9 -21 -8 3 -18 1 -22 -5 -4 -7 4 -11 19
-11 28 0 34 22 16 50 -8 11 -9 8 -4 -13z"/>
<path d="M600 2430 c-13 -8 -12 -10 3 -10 9 0 17 5 17 10 0 12 -1 12 -20 0z"/>
<path d="M2691 2415 c-15 -15 -21 -29 -17 -40 9 -23 30 -13 34 16 2 13 9 30
14 37 18 21 -6 12 -31 -13z"/>
<path d="M1280 2423 c0 -5 9 -20 20 -33 11 -13 20 -18 20 -11 0 6 -9 21 -20
33 -11 12 -20 17 -20 11z"/>
<path d="M2822 2410 c-6 -11 -12 -22 -12 -25 0 -11 20 6 30 26 14 25 -2 25
-18 -1z"/>
<path d="M2941 2414 c0 -11 3 -14 6 -6 3 7 2 16 -1 19 -3 4 -6 -2 -5 -13z"/>
<path d="M2865 2399 c4 -5 12 -9 19 -9 7 0 18 -12 24 -26 13 -27 32 -25 27 4
-2 9 -4 22 -4 27 -1 6 -17 11 -36 12 -20 1 -33 -3 -30 -8z"/>
<path d="M2095 2386 c41 -18 105 -27 105 -15 0 12 -13 16 -80 23 -52 5 -53 4
-25 -8z"/>
<path d="M1072 2365 c-12 -12 -22 -28 -22 -34 0 -7 -7 -25 -15 -41 -23 -45 -3
-36 23 10 13 24 32 42 47 46 26 6 30 12 17 29 -12 17 -27 14 -50 -10z"/>
<path d="M985 2353 c-13 -2 -28 -20 -39 -45 -12 -29 -20 -38 -26 -29 -5 9 -7
3 -7 -15 0 -17 -9 -35 -23 -46 -12 -10 -21 -18 -19 -19 2 0 15 -2 29 -3 14 -2
33 -6 43 -11 13 -5 17 -2 17 14 0 11 9 26 20 33 11 7 20 23 20 36 0 12 7 38
14 57 16 36 15 37 -29 28z"/>
<path d="M3210 2351 c0 -5 7 -15 17 -22 15 -13 15 -12 4 9 -12 23 -21 28 -21
13z"/>
<path d="M475 2310 c-3 -5 1 -10 9 -10 9 0 16 5 16 10 0 6 -4 10 -9 10 -6 0
-13 -4 -16 -10z"/>
<path d="M1512 2258 c-11 -48 -11 -53 10 -75 15 -16 33 -23 60 -23 l38 0 -33
68 c-29 61 -43 81 -57 82 -3 0 -11 -23 -18 -52z"/>
<path d="M2900 2249 c0 -5 5 -7 10 -4 6 3 10 8 10 11 0 2 -4 4 -10 4 -5 0 -10
-5 -10 -11z"/>
<path d="M3210 2244 c0 -14 3 -14 15 -4 8 7 15 14 15 16 0 2 -7 4 -15 4 -8 0
-15 -7 -15 -16z"/>
<path d="M800 2237 c0 -11 39 -43 44 -35 1 2 -8 13 -21 25 -13 12 -23 17 -23
10z"/>
<path d="M2650 2240 c0 -5 5 -10 10 -10 6 0 10 5 10 10 0 6 -4 10 -10 10 -5 0
-10 -4 -10 -10z"/>
<path d="M613 2215 c-9 -25 4 -29 17 -6 7 15 7 21 0 21 -6 0 -13 -7 -17 -15z"/>
<path d="M280 2204 c0 -8 5 -12 10 -9 6 3 10 10 10 16 0 5 -4 9 -10 9 -5 0
-10 -7 -10 -16z"/>
<path d="M396 2199 c-33 -26 -48 -53 -40 -73 9 -23 25 -20 63 12 29 24 33 33
27 55 -8 32 -15 33 -50 6z"/>
<path d="M2666 2155 c-71 -18 -65 -24 15 -19 41 3 78 9 82 13 15 14 -49 18
-97 6z"/>
<path d="M1688 2143 c6 -2 18 -2 25 0 6 3 1 5 -13 5 -14 0 -19 -2 -12 -5z"/>
<path d="M140 2125 c0 -8 5 -15 10 -15 6 0 10 7 10 15 0 8 -4 15 -10 15 -5 0
-10 -7 -10 -15z"/>
<path d="M1845 2114 c0 -19 4 -21 35 -17 46 8 46 8 3 25 -37 14 -38 14 -38 -8z"/>
<path d="M2190 2130 c0 -5 4 -10 9 -10 6 0 13 5 16 10 3 6 -1 10 -9 10 -9 0
-16 -4 -16 -10z"/>
<path d="M175 2090 c-3 -5 -1 -10 4 -10 6 0 11 5 11 10 0 6 -2 10 -4 10 -3 0
-8 -4 -11 -10z"/>
<path d="M1515 2070 c3 -5 10 -10 16 -10 5 0 9 5 9 10 0 6 -7 10 -16 10 -8 0
-12 -4 -9 -10z"/>
<path d="M255 2049 c-9 -38 8 -113 26 -117 14 -2 15 5 7 60 -11 70 -24 93 -33
57z"/>
<path d="M2170 2044 c-9 -10 -10 -18 -2 -26 12 -12 32 -2 32 17 0 21 -16 26
-30 9z"/>
<path d="M3298 2053 c7 -3 16 -2 19 1 4 3 -2 6 -13 5 -11 0 -14 -3 -6 -6z"/>
<path d="M1027 2030 c3 -11 9 -20 15 -20 5 0 4 9 -2 20 -6 11 -12 20 -14 20
-2 0 -2 -9 1 -20z"/>
<path d="M1725 2040 c3 -5 14 -10 23 -10 15 0 15 2 2 10 -20 13 -33 13 -25 0z"/>
<path d="M501 2011 c-32 -30 -34 -37 -31 -83 3 -50 86 -188 113 -188 5 0 6 10
3 23 -14 45 -16 53 -24 87 -5 19 -5 46 -1 60 4 14 4 41 2 61 -3 21 -1 39 6 43
6 4 9 12 6 17 -11 17 -43 9 -74 -20z"/>
<path d="M2025 2033 c-11 -3 -25 -10 -32 -15 -7 -5 -17 -7 -22 -4 -5 4 -12 2
-16 -4 -3 -6 4 -10 17 -10 13 0 29 -4 37 -9 20 -13 105 18 90 33 -8 8 -54 14
-74 9z"/>
<path d="M2740 2030 c0 -5 12 -10 26 -10 14 0 23 4 19 10 -3 6 -15 10 -26 10
-10 0 -19 -4 -19 -10z"/>
<path d="M1204 2015 c-4 -8 -1 -22 6 -30 6 -8 22 -45 35 -82 23 -70 36 -84 41
-46 3 19 -60 173 -72 173 -2 0 -7 -7 -10 -15z"/>
<path d="M1790 2020 c0 -5 5 -10 10 -10 6 0 10 5 10 10 0 6 -4 10 -10 10 -5 0
-10 -4 -10 -10z"/>
<path d="M1510 1995 c0 -8 5 -15 10 -15 6 0 10 7 10 15 0 8 -4 15 -10 15 -5 0
-10 -7 -10 -15z"/>
<path d="M3320 1991 c0 -6 5 -13 10 -16 6 -3 10 1 10 9 0 9 -4 16 -10 16 -5 0
-10 -4 -10 -9z"/>
<path d="M1273 1963 c1 -16 6 -31 12 -35 20 -15 24 -8 10 19 -8 15 -12 30 -9
35 3 4 1 8 -4 8 -6 0 -9 -12 -9 -27z"/>
<path d="M2357 1945 c21 -24 44 -44 51 -45 7 0 36 -12 65 -26 l52 -26 -70 71
c-59 60 -75 71 -103 71 l-33 0 38 -45z"/>
<path d="M3035 1970 c-8 -12 20 -24 35 -15 5 3 10 10 10 16 0 12 -37 12 -45
-1z"/>
<path d="M15 1950 c-4 -6 -9 -32 -12 -57 -6 -60 13 -49 23 13 6 46 2 65 -11
44z"/>
<path d="M2835 1950 c-3 -5 3 -10 14 -10 12 0 21 5 21 10 0 6 -6 10 -14 10 -8
0 -18 -4 -21 -10z"/>
<path d="M1087 1929 c4 -13 8 -18 11 -10 2 7 -1 18 -6 23 -8 8 -9 4 -5 -13z"/>
<path d="M3332 1931 c4 -13 18 -16 19 -4 0 4 -5 9 -11 12 -7 2 -11 -2 -8 -8z"/>
<path d="M685 1910 c3 -5 8 -10 11 -10 2 0 4 5 4 10 0 6 -5 10 -11 10 -5 0 -7
-4 -4 -10z"/>
<path d="M2710 1910 c0 -5 5 -10 10 -10 6 0 10 5 10 10 0 6 -4 10 -10 10 -5 0
-10 -4 -10 -10z"/>
<path d="M3535 1910 c-3 -6 1 -7 9 -4 18 7 21 14 7 14 -6 0 -13 -4 -16 -10z"/>
<path d="M2264 1895 c22 -17 40 -20 32 -6 -3 5 -16 11 -28 14 -22 6 -22 5 -4
-8z"/>
<path d="M1220 1889 c0 -5 5 -7 10 -4 6 3 10 8 10 11 0 2 -4 4 -10 4 -5 0 -10
-5 -10 -11z"/>
<path d="M75 1880 c-4 -7 -1 -16 6 -21 17 -10 26 8 11 23 -6 6 -12 6 -17 -2z"/>
<path d="M3636 1874 c-4 -9 -4 -19 -1 -22 2 -3 7 3 11 12 4 9 4 19 1 22 -2 3
-7 -3 -11 -12z"/>
<path d="M2310 1876 c0 -2 7 -7 16 -10 8 -3 12 -2 9 4 -6 10 -25 14 -25 6z"/>
<path d="M3434 1869 c-9 -16 18 -30 33 -17 7 6 10 14 7 19 -7 13 -31 11 -40
-2z"/>
<path d="M1940 1840 c0 -5 7 -10 15 -10 8 0 15 5 15 10 0 6 -7 10 -15 10 -8 0
-15 -4 -15 -10z"/>
<path d="M0 1820 c0 -5 5 -10 10 -10 6 0 10 5 10 10 0 6 -4 10 -10 10 -5 0
-10 -4 -10 -10z"/>
<path d="M3546 1821 c-4 -5 -2 -12 3 -15 5 -4 12 -2 15 3 4 5 2 12 -3 15 -5 4
-12 2 -15 -3z"/>
<path d="M3580 1807 c0 -15 -9 -28 -22 -35 -14 -6 -17 -11 -8 -11 25 -1 49 24
47 47 -2 30 -17 28 -17 -1z"/>
<path d="M2695 1810 c3 -5 10 -10 16 -10 5 0 9 5 9 10 0 6 -7 10 -16 10 -8 0
-12 -4 -9 -10z"/>
<path d="M311 1791 c-11 -19 -10 -25 6 -37 10 -7 21 -14 26 -14 12 0 8 35 -7
55 -13 18 -14 18 -25 -4z"/>
<path d="M842 1798 c6 -18 28 -21 28 -4 0 9 -7 16 -16 16 -9 0 -14 -5 -12 -12z"/>
<path d="M3452 1796 c7 -8 15 -12 17 -11 5 6 -10 25 -20 25 -5 0 -4 -6 3 -14z"/>
<path d="M157 1784 c-11 -11 3 -24 24 -24 12 0 19 5 17 13 -5 14 -31 21 -41
11z"/>
<path d="M11 1747 c-7 -13 -11 -35 -8 -48 3 -18 5 -16 6 11 1 40 17 30 24 -15
3 -25 4 -24 5 10 2 54 -10 73 -27 42z"/>
<path d="M2744 1745 c0 -14 5 -25 10 -25 6 0 21 -11 35 -24 19 -18 41 -25 84
-28 31 -3 57 -2 57 2 0 10 -70 64 -107 83 -18 10 -43 17 -56 17 -20 0 -25 -5
-23 -25z"/>
<path d="M3400 1765 c0 -5 5 -17 10 -25 5 -8 10 -10 10 -5 0 6 -5 17 -10 25
-5 8 -10 11 -10 5z"/>
<path d="M3365 1750 c-3 -5 1 -10 10 -10 9 0 13 5 10 10 -3 6 -8 10 -10 10 -2
0 -7 -4 -10 -10z"/>
<path d="M3287 1701 c3 -12 10 -21 15 -21 13 0 6 32 -9 37 -7 3 -9 -3 -6 -16z"/>
<path d="M3171 1694 c0 -11 3 -14 6 -6 3 7 2 16 -1 19 -3 4 -6 -2 -5 -13z"/>
<path d="M3055 1670 c3 -5 8 -10 11 -10 2 0 4 5 4 10 0 6 -5 10 -11 10 -5 0
-7 -4 -4 -10z"/>
<path d="M3 1635 c0 -22 2 -30 4 -17 2 12 2 30 0 40 -3 9 -5 -1 -4 -23z"/>
<path d="M1339 1635 c-4 -3 -22 -7 -40 -9 -88 -8 -179 -31 -231 -57 -80 -40
-128 -85 -128 -118 0 -31 20 -79 36 -85 30 -12 91 23 163 92 90 87 149 132
172 132 20 0 42 25 37 40 -2 6 -6 9 -9 5z"/>
<path d="M3194 1626 c-4 -10 -2 -22 4 -28 8 -8 13 -7 18 6 4 10 2 22 -4 28 -8
8 -13 7 -18 -6z"/>
<path d="M1396 1623 c-11 -11 -6 -23 9 -23 8 0 15 4 15 9 0 13 -16 22 -24 14z"/>
<path d="M3120 1621 c0 -5 7 -14 15 -21 12 -10 15 -10 15 3 0 8 -7 17 -15 21
-8 3 -15 2 -15 -3z"/>
<path d="M2918 1613 c-38 -6 -35 -15 11 -42 52 -28 171 -29 171 -1 0 10 -12
22 -27 28 -34 13 -118 21 -155 15z"/>
<path d="M3362 1608 c-16 -16 -15 -25 1 -25 7 0 13 9 13 19 0 21 1 21 -14 6z"/>
<path d="M0 1569 c0 -11 4 -17 10 -14 5 3 10 0 10 -7 0 -8 5 -6 11 5 12 20 4
37 -17 37 -8 0 -14 -9 -14 -21z"/>
<path d="M700 1575 c7 -8 17 -15 22 -15 6 0 5 7 -2 15 -7 8 -17 15 -22 15 -6
0 -5 -7 2 -15z"/>
<path d="M2632 1568 c6 -18 28 -21 28 -4 0 9 -7 16 -16 16 -9 0 -14 -5 -12
-12z"/>
<path d="M2796 1552 c-6 -10 30 -9 40 1 4 4 -2 7 -14 7 -11 0 -23 -4 -26 -8z"/>
<path d="M2892 1518 c6 -18 28 -21 28 -4 0 9 -7 16 -16 16 -9 0 -14 -5 -12
-12z"/>
<path d="M1320 1504 c0 -8 5 -12 10 -9 6 3 10 10 10 16 0 5 -4 9 -10 9 -5 0
-10 -7 -10 -16z"/>
<path d="M3050 1509 c0 -5 5 -7 10 -4 6 3 10 8 10 11 0 2 -4 4 -10 4 -5 0 -10
-5 -10 -11z"/>
<path d="M35 1491 c-6 -21 3 -51 16 -51 5 0 9 7 9 16 0 8 -5 12 -10 9 -6 -3
-10 -2 -10 4 0 5 5 13 10 16 13 8 13 25 1 25 -5 0 -12 -8 -16 -19z"/>
<path d="M1545 1490 c3 -5 8 -10 11 -10 2 0 4 5 4 10 0 6 -5 10 -11 10 -5 0
-7 -4 -4 -10z"/>
<path d="M542 1450 c7 -10 14 -18 15 -16 6 6 -9 36 -18 36 -5 0 -4 -9 3 -20z"/>
<path d="M90 1423 c-11 -32 -14 -35 -20 -18 -7 19 -7 18 -19 -4 -11 -19 -11
-25 0 -32 8 -4 16 -3 20 2 4 7 18 8 42 1 28 -8 35 -7 31 3 -3 7 -14 15 -26 18
-16 5 -19 11 -13 36 9 42 2 39 -15 -6z"/>
<path d="M1325 1440 c-3 -6 -14 -9 -23 -8 -12 2 -18 -5 -20 -25 -3 -21 5 -36
30 -60 65 -62 132 -111 91 -65 -13 13 -23 30 -23 36 0 7 -7 29 -16 50 -10 20
-19 46 -21 56 -5 26 -9 30 -18 16z"/>
<path d="M1151 1414 c0 -11 3 -14 6 -6 3 7 2 16 -1 19 -3 4 -6 -2 -5 -13z"/>
<path d="M2 1400 c0 -14 2 -19 5 -12 2 6 2 18 0 25 -3 6 -5 1 -5 -13z"/>
<path d="M740 1399 c0 -5 -15 -6 -32 -3 -31 5 -32 5 -14 -10 21 -17 49 -19 78
-8 15 6 14 9 -7 19 -14 6 -25 7 -25 2z"/>
<path d="M930 1360 c14 -10 27 -17 29 -15 8 8 -22 35 -38 35 -12 0 -10 -5 9
-20z"/>
<path d="M1544 1366 c-3 -8 4 -36 16 -63 18 -42 28 -52 70 -70 34 -15 47 -17
43 -7 -2 7 -18 19 -33 26 -20 8 -25 15 -17 20 9 6 9 8 0 8 -18 0 -50 73 -35
78 18 6 4 22 -19 22 -11 0 -22 -6 -25 -14z"/>
<path d="M1928 1279 c-10 -5 -18 -17 -18 -24 0 -24 26 -17 38 10 12 27 7 30
-20 14z"/>
<path d="M0 1266 c0 -11 39 -50 45 -44 3 2 -6 15 -20 28 -14 13 -25 20 -25 16z"/>
<path d="M1866 1254 c-5 -14 -4 -15 9 -4 17 14 19 20 6 20 -5 0 -12 -7 -15
-16z"/>
<path d="M220 1220 c0 -5 5 -10 10 -10 6 0 10 5 10 10 0 6 -4 10 -10 10 -5 0
-10 -4 -10 -10z"/>
<path d="M1960 1197 c-39 -20 -39 -71 1 -125 27 -37 36 -43 63 -40 30 3 31 5
33 53 1 28 5 65 9 83 6 29 4 32 -17 32 -13 0 -33 3 -44 5 -11 3 -31 -1 -45 -8z"/>
<path d="M150 1190 c0 -6 7 -10 15 -10 8 0 15 2 15 4 0 2 -7 6 -15 10 -8 3
-15 1 -15 -4z"/>
<path d="M1804 1189 c-3 -6 -1 -16 5 -22 8 -8 11 -5 11 11 0 24 -5 28 -16 11z"/>
<path d="M1676 1104 c-9 -22 -8 -24 9 -24 8 0 15 6 15 14 0 22 -17 28 -24 10z"/>
<path d="M1256 1063 c-11 -11 -6 -23 9 -23 8 0 15 4 15 9 0 13 -16 22 -24 14z"/>
<path d="M1580 1060 c0 -5 5 -10 11 -10 5 0 7 5 4 10 -3 6 -8 10 -11 10 -2 0
-4 -4 -4 -10z"/>
<path d="M1763 1050 c-18 -11 -33 -22 -33 -25 0 -32 122 -84 147 -63 22 18 14
42 -27 76 -46 38 -46 38 -87 12z"/>
<path d="M2460 1060 c0 -5 5 -10 10 -10 6 0 10 5 10 10 0 6 -4 10 -10 10 -5 0
-10 -4 -10 -10z"/>
<path d="M1610 1050 c0 -5 4 -10 9 -10 6 0 13 5 16 10 3 6 -1 10 -9 10 -9 0
-16 -4 -16 -10z"/>
<path d="M2287 1042 c-10 -11 -14 -23 -9 -26 12 -7 35 19 30 34 -2 7 -11 3
-21 -8z"/>
<path d="M2180 1037 c0 -10 -7 -29 -16 -42 -14 -21 -14 -25 -2 -25 23 0 42 44
29 66 -10 18 -10 18 -11 1z"/>
<path d="M2362 1038 c-14 -14 -16 -38 -3 -38 5 0 14 7 21 15 17 20 0 41 -18
23z"/>
<path d="M1375 1030 c3 -5 11 -10 16 -10 6 0 7 5 4 10 -3 6 -11 10 -16 10 -6
0 -7 -4 -4 -10z"/>
<path d="M2430 1025 c-8 -9 -8 -15 -2 -15 12 0 26 19 19 26 -2 2 -10 -2 -17
-11z"/>
<path d="M4297 1029 c-17 -10 -24 -39 -9 -39 8 0 35 40 30 45 -2 2 -11 -1 -21
-6z"/>
<path d="M1675 1000 c3 -5 11 -10 16 -10 6 0 7 5 4 10 -3 6 -11 10 -16 10 -6
0 -7 -4 -4 -10z"/>
<path d="M1590 990 c0 -5 7 -10 15 -10 8 0 15 5 15 10 0 6 -7 10 -15 10 -8 0
-15 -4 -15 -10z"/>
<path d="M2302 988 c-14 -14 -16 -38 -3 -38 8 0 23 41 17 47 -1 1 -8 -3 -14
-9z"/>
<path d="M2405 970 c3 -5 8 -10 11 -10 2 0 4 5 4 10 0 6 -5 10 -11 10 -5 0 -7
-4 -4 -10z"/>
<path d="M2226 953 c-9 -22 -3 -25 19 -10 15 12 16 15 2 20 -9 3 -18 -1 -21
-10z"/>
<path d="M4259 933 l-34 -36 37 29 c21 16 38 32 38 37 0 12 -5 9 -41 -30z"/>
<path d="M2366 935 c-10 -13 -22 -22 -27 -19 -5 3 -9 0 -9 -7 0 -7 -11 -10
-31 -7 -17 3 -33 0 -35 -6 -3 -7 -24 -10 -54 -8 -35 3 -50 0 -50 -8 0 -9 12
-11 39 -7 29 4 41 1 43 -9 3 -12 7 -12 31 1 16 8 32 14 36 12 13 -4 101 57 98
67 -6 19 -22 16 -41 -9z"/>
<path d="M80 931 c0 -5 8 -12 17 -15 15 -6 15 -8 3 -16 -8 -6 -13 -10 -10 -11
3 0 15 -2 27 -5 16 -3 21 0 17 11 -7 17 -54 49 -54 36z"/>
<path d="M1796 923 c-6 -14 -5 -15 5 -6 7 7 10 15 7 18 -3 3 -9 -2 -12 -12z"/>
<path d="M2187 933 c-12 -12 -7 -22 8 -17 8 4 15 10 15 15 0 11 -14 12 -23 2z"/>
<path d="M2120 922 c0 -5 -19 -8 -43 -7 -23 1 -51 -1 -61 -5 -32 -11 1 -24 60
-25 39 -1 51 2 47 12 -3 8 3 13 15 13 12 0 24 5 27 10 4 6 -5 10 -19 10 -14 0
-26 -4 -26 -8z"/>
<path d="M2510 905 c-11 -13 -10 -14 4 -9 9 3 16 10 16 15 0 13 -6 11 -20 -6z"/>
<path d="M2640 895 c-7 -9 -8 -15 -2 -15 5 0 12 7 16 15 3 8 4 15 2 15 -2 0
-9 -7 -16 -15z"/>
<path d="M1831 871 c-9 -6 -7 -10 8 -14 12 -3 21 -1 21 3 0 14 -15 19 -29 11z"/>
<path d="M2346 862 c-3 -6 0 -13 6 -15 8 -3 6 -6 -4 -6 -10 -1 -18 -8 -18 -17
0 -19 20 -14 34 9 7 12 7 20 -1 28 -7 7 -13 7 -17 1z"/>
<path d="M2553 855 c-3 -9 -3 -18 0 -21 9 -9 27 6 27 22 0 19 -19 18 -27 -1z"/>
<path d="M1895 850 c-3 -5 1 -10 9 -10 9 0 16 5 16 10 0 6 -4 10 -9 10 -6 0
-13 -4 -16 -10z"/>
<path d="M4170 849 c0 -5 5 -7 10 -4 6 3 10 8 10 11 0 2 -4 4 -10 4 -5 0 -10
-5 -10 -11z"/>
<path d="M2035 830 c-7 -12 2 -30 16 -30 5 0 9 9 9 20 0 21 -15 27 -25 10z"/>
<path d="M2120 821 c0 -5 5 -13 10 -16 6 -3 10 -2 10 4 0 5 -4 13 -10 16 -5 3
-10 2 -10 -4z"/>
<path d="M2207 794 c-10 -11 -8 -44 2 -44 6 0 13 4 16 10 8 12 -9 43 -18 34z"/>
<path d="M2370 770 c0 -5 5 -10 10 -10 6 0 10 5 10 10 0 6 -4 10 -10 10 -5 0
-10 -4 -10 -10z"/>
<path d="M3954 658 l-29 -33 33 29 c17 17 32 31 32 33 0 8 -8 1 -36 -29z"/>
<path d="M265 590 c3 -5 8 -10 11 -10 2 0 4 5 4 10 0 6 -5 10 -11 10 -5 0 -7
-4 -4 -10z"/>
<path d="M3565 265 c-33 -30 -57 -55 -54 -55 3 0 17 9 30 21 13 12 31 26 39
33 17 13 55 56 49 56 -2 -1 -31 -25 -64 -55z"/>
<path d="M1130 70 c0 -5 5 -10 10 -10 6 0 10 5 10 10 0 6 -4 10 -10 10 -5 0
-10 -4 -10 -10z"/>
</g>
</svg>
